<svg width="961" height="86" viewBox="0 0 961 86" fill="none" xmlns="http://www.w3.org/2000/svg"><path d="M17.7559 7.33887h-3.92V18h-2.6367V7.33887H7.33203V5.20312H17.7559v2.13575zm3.8232 2.18847c.6738-.80859 1.5205-1.21289 2.54-1.21289 2.0625 0 3.1084 1.19825 3.1377 3.59475V18h-2.54v-6.0205c0-.5449-.1172-.9463-.3516-1.2041-.2343-.2637-.624-.3955-1.1689-.3955-.7442 0-1.2832.2871-1.6172.8613V18h-2.54V4.5h2.54v5.02734zM31.8535 18h-2.5488V8.49023h2.5488V18zM29.1553 6.0293c0-.38086.1259-.69434.3779-.94043.2578-.2461.6064-.36914 1.0459-.36914.4336 0 .7793.12304 1.0371.36914.2578.24609.3867.55957.3867.94043 0 .38672-.1318.70312-.3955.94922-.2578.24609-.6006.36914-1.0283.36914-.4277 0-.7734-.12305-1.0371-.36914-.2578-.2461-.3867-.5625-.3867-.94922zm9.9492 9.3428c0-.3106-.1553-.5537-.4658-.7295-.3047-.1817-.7969-.3428-1.4766-.4834-2.2617-.4746-3.3926-1.4356-3.3926-2.8828 0-.8438.3487-1.54691 1.0459-2.10941.7032-.56836 1.6201-.85254 2.751-.85254 1.207 0 2.1709.28418 2.8916.85254.7266.56836 1.0899 1.30661 1.0899 2.21481h-2.5401c0-.3632-.1172-.6621-.3516-.8964-.2343-.2403-.6005-.3604-1.0986-.3604-.4277 0-.7588.0967-.9931.29-.2344.1934-.3516.4395-.3516.7383 0 .2813.1318.5098.3955.6856.2695.1699.7207.3193 1.3535.4482.6328.1231 1.166.2637 1.5996.4219 1.3418.4922 2.0127 1.3447 2.0127 2.5576 0 .8672-.3721 1.5703-1.1162 2.1094-.7441.5332-1.7051.7998-2.8828.7998-.7969 0-1.5059-.1406-2.127-.4219-.6152-.2871-1.0986-.6768-1.4502-1.1689-.3515-.4981-.5273-1.0342-.5273-1.6084h2.4082c.0234.4511.1904.7968.501 1.0371.3105.2402.7265.3603 1.248.3603.4864 0 .8526-.0908 1.0987-.2724.2519-.1875.3779-.4307.3779-.7295zm17.1562-2.0391c0 1.4649-.3339 2.6397-1.0019 3.5244-.6621.8789-1.5586 1.3184-2.6895 1.3184-.9609 0-1.7373-.334-2.3291-1.002v4.4824h-2.54V8.49023h2.3555l.0879.93165c.6152-.73829 1.4179-1.10743 2.4082-1.10743 1.1718 0 2.083.4336 2.7334 1.30078.6503.86717.9755 2.06247.9755 3.58597v.1318zm-2.54-.1846c0-.8847-.1582-1.5673-.4746-2.0478-.3106-.4805-.7647-.7207-1.3623-.7207-.7969 0-1.3447.3047-1.6436.914v3.8936c.3106.627.8643.9404 1.6612.9404 1.2129 0 1.8193-.9931 1.8193-2.9795zm9.4658-2.2763c-.3457-.0469-.6504-.0703-.914-.0703-.961 0-1.5909.3252-1.8897.9755V18h-2.54V8.49023h2.3994l.0703 1.13379c.5098-.87304 1.2158-1.30957 2.1182-1.30957.2812 0 .5449.03809.791.11426l-.0352 2.44339zm.5186 2.2851c0-.9433.1816-1.7842.5449-2.5224.3633-.73832.8848-1.3096 1.5645-1.7139.6855-.4043 1.4794-.60645 2.3818-.60645 1.2832 0 2.3291.39258 3.1377 1.17774.8144.78511 1.2685 1.85161 1.3623 3.19921l.0176.6504c0 1.459-.4073 2.6309-1.2217 3.5156-.8145.8789-1.9072 1.3184-3.2783 1.3184-1.3711 0-2.4668-.4395-3.2871-1.3184-.8145-.8789-1.2217-2.0742-1.2217-3.5859v-.1143zm2.54.1846c0 .9023.1699 1.5937.5098 2.0742.3398.4746.8262.7119 1.459.7119.6152 0 1.0957-.2343 1.4414-.7031.3457-.4746.5185-1.2305.5185-2.2676 0-.8847-.1728-1.5703-.5185-2.0566-.3457-.4863-.8321-.7295-1.459-.7295-.6211 0-1.1016.2432-1.4414.7295-.3399.4805-.5098 1.2275-.5098 2.2412zm10.7227-4.85157V18.5186c0 1.0488-.2783 1.8632-.835 2.4433-.5566.586-1.3594.8789-2.4082.8789-.4394 0-.8584-.0498-1.2568-.1494v-2.0127c.3047.0527.5713.0791.7998.0791.7676 0 1.1513-.4072 1.1513-1.2217V8.49023h2.5489zm-2.751-2.46093c0-.38086.126-.69434.3779-.94043.2578-.2461.6065-.36914 1.0459-.36914.4395 0 .7852.12304 1.0371.36914.2578.24609.3868.55957.3868.94043 0 .38672-.1319.70312-.3956.94922-.2578.24609-.6005.36914-1.0283.36914-.4277 0-.7734-.12305-1.0371-.36914-.2578-.2461-.3867-.5625-.3867-.94922zm9.1143 12.1465c-1.3946 0-2.5313-.4278-3.4102-1.2832-.873-.8555-1.3096-1.9951-1.3096-3.419v-.2461c0-.955.1846-1.8076.5537-2.5576.3692-.75584.8907-1.33592 1.5645-1.74021.6797-.41016 1.4531-.61524 2.3203-.61524 1.3008 0 2.3232.41016 3.0674 1.23047.75.82028 1.125 1.98338 1.125 3.48928v1.0371h-6.0557c.0821.6211.3281 1.1191.7383 1.4941.416.375.9404.5625 1.5732.5625.9786 0 1.7432-.3545 2.294-1.0634l1.248 1.3974c-.3808.5391-.8964.961-1.5468 1.2656-.6504.2989-1.3711.4483-2.1621.4483zm-.2901-7.8047c-.5039 0-.914.1699-1.2305.5098-.3105.3398-.5097.8261-.5976 1.4589h3.5332v-.2021c-.0117-.5625-.1641-.9961-.457-1.3008-.293-.3105-.709-.4658-1.2481-.4658zm9.6065 5.7568c.4687 0 .8496-.1289 1.1425-.3867.293-.2578.4454-.6006.4571-1.0283h2.3818c-.0059.6445-.1816 1.2363-.5273 1.7754-.3457.5332-.8204.9492-1.4239 1.248-.5976.293-1.2597.4395-1.9863.4395-1.3594 0-2.4316-.4307-3.2168-1.292-.7851-.8672-1.1777-2.0625-1.1777-3.5859v-.167c0-1.4649.3896-2.6338 1.1689-3.50688.7793-.87304 1.8487-1.30957 3.208-1.30957 1.1895 0 2.1416.33985 2.8565 1.01953.7207.67382 1.0869 1.57322 1.0986 2.69822h-2.3818c-.0117-.4922-.1641-.8906-.4571-1.1953-.2929-.3105-.6796-.4658-1.1601-.4658-.5918 0-1.0401.2168-1.3447.6504-.2989.4277-.4483 1.125-.4483 2.0918v.2637c0 .9785.1494 1.6816.4483 2.1093.2988.4278.7529.6416 1.3623.6416zm8.4725-9.97556v2.33789h1.626v1.86327h-1.626v4.7461c0 .3516.068.6035.202.7559.135.1523.393.2285.774.2285.281 0 .53-.0205.747-.0615v1.9248c-.498.1523-1.011.2285-1.538.2285-1.7816 0-2.6898-.8994-2.7249-2.6983v-5.124h-1.3887V8.49023h1.3887V6.15234h2.5399zm10.002 3.375c.674-.80859 1.521-1.21289 2.54-1.21289 2.063 0 3.109 1.19825 3.138 3.59475V18h-2.54v-6.0205c0-.5449-.117-.9463-.352-1.2041-.234-.2637-.624-.3955-1.169-.3955-.744 0-1.283.2871-1.617.8613V18h-2.54V4.5h2.54v5.02734zM124.227 18c-.118-.2285-.203-.5127-.255-.8525-.616.6855-1.415 1.0283-2.4 1.0283-.931 0-1.705-.2696-2.32-.8086-.609-.5391-.914-1.2188-.914-2.0391 0-1.0078.372-1.7812 1.116-2.3203.75-.539 1.831-.8115 3.243-.8174h1.169v-.5449c0-.4394-.114-.791-.343-1.0547-.222-.2637-.577-.3955-1.063-.3955-.428 0-.765.1026-1.011.3076-.24.2051-.36.4864-.36.8438h-2.54c0-.5508.17-1.0606.51-1.52932.339-.46875.82-.83496 1.441-1.09863.621-.26953 1.318-.4043 2.092-.4043 1.172 0 2.1.2959 2.786.8877.691.58594 1.037 1.41215 1.037 2.47855v4.122c.006.9024.132 1.585.378 2.0479V18h-2.566zm-2.101-1.7666c.375 0 .721-.082 1.037-.2461.316-.1699.551-.3955.703-.6768v-1.6347h-.949c-1.271 0-1.948.4394-2.03 1.3183l-.009.1495c0 .3164.111.5771.334.7822.223.2051.527.3076.914.3076zm11.391-.8613c0-.3106-.156-.5537-.466-.7295-.305-.1817-.797-.3428-1.477-.4834-2.262-.4746-3.392-1.4356-3.392-2.8828 0-.8438.348-1.54691 1.046-2.10941.703-.56836 1.62-.85254 2.751-.85254 1.207 0 2.17.28418 2.891.85254.727.56836 1.09 1.30661 1.09 2.21481h-2.54c0-.3632-.117-.6621-.352-.8964-.234-.2403-.6-.3604-1.098-.3604-.428 0-.759.0967-.993.29-.235.1934-.352.4395-.352.7383 0 .2813.132.5098.396.6856.269.1699.72.3193 1.353.4482.633.1231 1.166.2637 1.6.4219 1.341.4922 2.012 1.3447 2.012 2.5576 0 .8672-.372 1.5703-1.116 2.1094-.744.5332-1.705.7998-2.883.7998-.797 0-1.506-.1406-2.127-.4219-.615-.2871-1.098-.6768-1.45-1.1689-.351-.4981-.527-1.0342-.527-1.6084h2.408c.023.4511.19.7968.501 1.0371.311.2402.727.3603 1.248.3603.486 0 .853-.0908 1.099-.2724.252-.1875.378-.4307.378-.7295zm13.939-4.5c-.346-.0469-.65-.0703-.914-.0703-.961 0-1.591.3252-1.89.9755V18h-2.54V8.49023h2.4l.07 1.13379c.51-.87304 1.216-1.30957 2.118-1.30957.281 0 .545.03809.791.11426l-.035 2.44339zm5.432 7.3037c-1.395 0-2.532-.4278-3.41-1.2832-.874-.8555-1.31-1.9951-1.31-3.419v-.2461c0-.955.185-1.8076.554-2.5576.369-.75584.89-1.33592 1.564-1.74021.68-.41016 1.453-.61524 2.32-.61524 1.301 0 2.324.41016 3.068 1.23047.75.82028 1.125 1.98338 1.125 3.48928v1.0371h-6.056c.082.6211.328 1.1191.738 1.4941.416.375.941.5625 1.574.5625.978 0 1.743-.3545 2.294-1.0634l1.248 1.3974c-.381.5391-.897.961-1.547 1.2656-.651.2989-1.371.4483-2.162.4483zm-.29-7.8047c-.504 0-.914.1699-1.231.5098-.31.3398-.51.8261-.597 1.4589h3.533v-.2021c-.012-.5625-.164-.9961-.457-1.3008-.293-.3105-.709-.4658-1.248-.4658zm9.606 5.7568c.469 0 .85-.1289 1.143-.3867.293-.2578.445-.6006.457-1.0283h2.382c-.006.6445-.182 1.2363-.528 1.7754-.346.5332-.82.9492-1.424 1.248-.597.293-1.259.4395-1.986.4395-1.359 0-2.432-.4307-3.217-1.292-.785-.8672-1.177-2.0625-1.177-3.5859v-.167c0-1.4649.389-2.6338 1.168-3.50688.78-.87304 1.849-1.30957 3.208-1.30957 1.19 0 2.142.33985 2.857 1.01953.721.67382 1.087 1.57322 1.099 2.69822h-2.382c-.012-.4922-.164-.8906-.457-1.1953-.293-.3105-.68-.4658-1.16-.4658-.592 0-1.041.2168-1.345.6504-.299.4277-.448 1.125-.448 2.0918v.2637c0 .9785.149 1.6816.448 2.1093.299.4278.753.6416 1.362.6416zm9.809 2.0479c-1.395 0-2.532-.4278-3.41-1.2832-.874-.8555-1.31-1.9951-1.31-3.419v-.2461c0-.955.185-1.8076.554-2.5576.369-.75584.89-1.33592 1.564-1.74021.68-.41016 1.453-.61524 2.32-.61524 1.301 0 2.324.41016 3.068 1.23047.75.82028 1.125 1.98338 1.125 3.48928v1.0371h-6.056c.082.6211.328 1.1191.738 1.4941.416.375.941.5625 1.574.5625.978 0 1.743-.3545 2.294-1.0634l1.248 1.3974c-.381.5391-.897.961-1.547 1.2656-.651.2989-1.371.4483-2.162.4483zm-.29-7.8047c-.504 0-.914.1699-1.231.5098-.31.3398-.51.8261-.597 1.4589h3.533v-.2021c-.012-.5625-.164-.9961-.457-1.3008-.293-.3105-.709-.4658-1.248-.4658zM180.055 18h-2.549V8.49023h2.549V18zm-2.699-11.9707c0-.38086.126-.69434.378-.94043.258-.2461.607-.36914 1.046-.36914.434 0 .78.12304 1.037.36914.258.24609.387.55957.387.94043 0 .38672-.132.70312-.395.94922-.258.24609-.601.36914-1.029.36914-.427 0-.773-.12305-1.037-.36914-.258-.2461-.387-.5625-.387-.94922zm8.359 8.8682l1.766-6.40727h2.655L186.928 18h-2.426l-3.208-9.50977h2.654l1.767 6.40727zm9.8 3.2783c-1.395 0-2.532-.4278-3.411-1.2832-.873-.8555-1.309-1.9951-1.309-3.419v-.2461c0-.955.184-1.8076.554-2.5576.369-.75584.89-1.33592 1.564-1.74021.68-.41016 1.453-.61524 2.32-.61524 1.301 0 2.324.41016 3.068 1.23047.75.82028 1.125 1.98338 1.125 3.48928v1.0371h-6.056c.082.6211.328 1.1191.738 1.4941.416.375.941.5625 1.574.5625.978 0 1.743-.3545 2.294-1.0634l1.248 1.3974c-.381.5391-.897.961-1.547 1.2656-.651.2989-1.371.4483-2.162.4483zm-.29-7.8047c-.504 0-.914.1699-1.231.5098-.31.3398-.51.8261-.598 1.4589h3.534v-.2021c-.012-.5625-.164-.9961-.457-1.3008-.293-.3105-.709-.4658-1.248-.4658zm5.255 2.8037c0-1.4824.332-2.6631.994-3.54199.668-.8789 1.579-1.31836 2.733-1.31836.926 0 1.69.34571 2.294 1.03711V4.5h2.549V18h-2.294l-.123-1.0107c-.633.791-1.447 1.1865-2.444 1.1865-1.119 0-2.018-.4395-2.698-1.3184-.674-.8847-1.011-2.1123-1.011-3.6826zm2.541.1846c0 .8906.155 1.5732.465 2.0478.311.4746.762.7119 1.354.7119.785 0 1.339-.331 1.661-.9931v-3.753c-.316-.6621-.864-.9931-1.644-.9931-1.224 0-1.836.9931-1.836 2.9795zM216.195 18v-7.6465h-1.415V8.49023h1.415v-.80859c0-1.06641.305-1.89258.914-2.47852.616-.59179 1.474-.88769 2.576-.88769.351 0 .782.05859 1.292.17578l-.027 1.96875c-.211-.05273-.469-.0791-.773-.0791-.955 0-1.433.44824-1.433 1.34473v.76464h1.89v1.86327h-1.89V18h-2.549zm11.452-.9668c-.626.7617-1.494 1.1426-2.601 1.1426-1.02 0-1.799-.293-2.338-.8789-.533-.586-.806-1.4444-.817-2.5752V8.49023h2.54v6.14357c0 .9902.451 1.4853 1.353 1.4853.862 0 1.453-.2988 1.776-.8964V8.49023h2.548V18h-2.39l-.071-.9668zm6.715-8.54297l.079 1.09864c.68-.84961 1.591-1.27442 2.734-1.27442 1.008 0 1.758.2959 2.25.8877.492.5918.744 1.47655.756 2.65425V18h-2.54v-6.082c0-.5391-.118-.9287-.352-1.169-.234-.2461-.624-.3691-1.169-.3691-.715 0-1.251.3047-1.608.914V18h-2.54V8.49023h2.39zm7.357 4.68457c0-1.4824.331-2.6631.993-3.54199.668-.8789 1.579-1.31836 2.733-1.31836.926 0 1.691.34571 2.294 1.03711V4.5h2.549V18h-2.294l-.123-1.0107c-.633.791-1.447 1.1865-2.443 1.1865-1.119 0-2.019-.4395-2.699-1.3184-.673-.8847-1.01-2.1123-1.01-3.6826zm2.54.1846c0 .8906.155 1.5732.466 2.0478.31.4746.761.7119 1.353.7119.785 0 1.339-.331 1.661-.9931v-3.753c-.316-.6621-.864-.9931-1.643-.9931-1.225 0-1.837.9931-1.837 2.9795zM254.938 18h-2.549V8.49023h2.549V18zm-2.699-11.9707c0-.38086.126-.69434.378-.94043.258-.2461.607-.36914 1.046-.36914.434 0 .779.12304 1.037.36914.258.24609.387.55957.387.94043 0 .38672-.132.70312-.396.94922-.257.24609-.6.36914-1.028.36914-.428 0-.773-.12305-1.037-.36914-.258-.2461-.387-.5625-.387-.94922zm7.137 2.46093l.079 1.09864c.68-.84961 1.591-1.27442 2.733-1.27442 1.008 0 1.758.2959 2.25.8877.493.5918.745 1.47655.756 2.65425V18h-2.54v-6.082c0-.5391-.117-.9287-.351-1.169-.235-.2461-.624-.3691-1.169-.3691-.715 0-1.251.3047-1.609.914V18h-2.54V8.49023h2.391zm7.383 4.68457c0-1.459.345-2.6338 1.037-3.52441.697-.89062 1.635-1.33594 2.812-1.33594 1.043 0 1.855.35743 2.435 1.07227l.105-.89649h2.303v9.19337c0 .832-.19 1.5557-.571 2.1709-.375.6152-.905 1.084-1.591 1.4062-.685.3223-1.488.4834-2.408.4834-.697 0-1.377-.1406-2.039-.4218-.662-.2754-1.163-.6328-1.503-1.0723l1.125-1.5469c.633.709 1.4 1.0635 2.303 1.0635.673 0 1.198-.1816 1.573-.5449.375-.3574.562-.8672.562-1.5293v-.5098c-.586.6621-1.356.9932-2.311.9932-1.143 0-2.069-.4453-2.778-1.336-.703-.8964-1.054-2.083-1.054-3.5595v-.1055zm2.54.1846c0 .8613.173 1.5381.518 2.0302.346.4864.821.7295 1.424.7295.774 0 1.327-.29 1.661-.8701V11.25c-.34-.5801-.887-.8701-1.643-.8701-.61 0-1.09.249-1.442.7471-.345.498-.518 1.2421-.518 2.2324zM282.588 18v-7.6465h-1.415V8.49023h1.415v-.80859c0-1.06641.305-1.89258.914-2.47852.615-.59179 1.474-.88769 2.575-.88769.352 0 .782.05859 1.292.17578l-.026 1.96875c-.211-.05273-.469-.0791-.774-.0791-.955 0-1.432.44824-1.432 1.34473v.76464h1.889v1.86327h-1.889V18h-2.549zm11.1-7.1279c-.345-.0469-.65-.0703-.914-.0703-.961 0-1.59.3252-1.889.9755V18h-2.54V8.49023h2.399l.07 1.13379c.51-.87304 1.216-1.30957 2.119-1.30957.281 0 .545.03809.791.11426l-.036 2.44339zm.519 2.2851c0-.9433.182-1.7842.545-2.5224.363-.73832.885-1.3096 1.564-1.7139.686-.4043 1.48-.60645 2.382-.60645 1.283 0 2.329.39258 3.138 1.17774.814.78511 1.268 1.85161 1.362 3.19921l.018.6504c0 1.459-.407 2.6309-1.222 3.5156-.814.8789-1.907 1.3184-3.278 1.3184s-2.467-.4395-3.287-1.3184c-.815-.8789-1.222-2.0742-1.222-3.5859v-.1143zm2.54.1846c0 .9023.17 1.5937.51 2.0742.34.4746.826.7119 1.459.7119.615 0 1.096-.2343 1.441-.7031.346-.4746.519-1.2305.519-2.2676 0-.8847-.173-1.5703-.519-2.0566-.345-.4863-.832-.7295-1.459-.7295-.621 0-1.101.2432-1.441.7295-.34.4805-.51 1.2275-.51 2.2412zm10.415-4.85157l.079 1.06348c.674-.82617 1.585-1.23926 2.734-1.23926 1.224 0 2.065.4834 2.522 1.4502.668-.9668 1.62-1.4502 2.857-1.4502 1.031 0 1.798.30176 2.302.90528.504.59765.756 1.49997.756 2.70707V18h-2.549v-6.0645c0-.539-.105-.9316-.316-1.1777-.211-.2519-.583-.3779-1.116-.3779-.762 0-1.289.3633-1.582 1.0898L312.857 18h-2.54v-6.0557c0-.5507-.108-.9492-.325-1.1953-.217-.2461-.586-.3691-1.107-.3691-.721 0-1.242.2988-1.565.8965V18h-2.54V8.49023h2.382zm20.734-2.33789v2.33789h1.625v1.86327h-1.625v4.7461c0 .3516.067.6035.202.7559.134.1523.392.2285.773.2285.281 0 .53-.0205.747-.0615v1.9248c-.498.1523-1.011.2285-1.538.2285-1.781 0-2.689-.8994-2.725-2.6983v-5.124h-1.388V8.49023h1.388V6.15234h2.541zm5.519 3.375c.674-.80859 1.521-1.21289 2.54-1.21289 2.063 0 3.108 1.19825 3.138 3.59475V18h-2.54v-6.0205c0-.5449-.117-.9463-.352-1.2041-.234-.2637-.624-.3955-1.169-.3955-.744 0-1.283.2871-1.617.8613V18h-2.54V4.5h2.54v5.02734zm11.971 8.64846c-1.395 0-2.532-.4278-3.41-1.2832-.873-.8555-1.31-1.9951-1.31-3.419v-.2461c0-.955.185-1.8076.554-2.5576.369-.75584.89-1.33592 1.564-1.74021.68-.41016 1.453-.61524 2.32-.61524 1.301 0 2.324.41016 3.068 1.23047.75.82028 1.125 1.98338 1.125 3.48928v1.0371h-6.056c.082.6211.328 1.1191.738 1.4941.417.375.941.5625 1.574.5625.978 0 1.743-.3545 2.294-1.0634l1.248 1.3974c-.381.5391-.897.961-1.547 1.2656-.651.2989-1.371.4483-2.162.4483zm-.29-7.8047c-.504 0-.914.1699-1.231.5098-.31.3398-.51.8261-.597 1.4589h3.533v-.2021c-.012-.5625-.164-.9961-.457-1.3008-.293-.3105-.709-.4658-1.248-.4658zm18 2.083h-5.063v3.4277h5.942V18h-8.579V5.20312h8.561v2.13575h-5.924v3.04983h5.063v2.0654zm7.796 4.5791c-.627.7617-1.495 1.1426-2.602 1.1426-1.019 0-1.799-.293-2.338-.8789-.533-.586-.806-1.4444-.817-2.5752V8.49023h2.54v6.14357c0 .9902.451 1.4853 1.353 1.4853.862 0 1.453-.2988 1.776-.8964V8.49023h2.549V18h-2.391l-.07-.9668zm9.72-6.1611c-.345-.0469-.65-.0703-.914-.0703-.961 0-1.591.3252-1.889.9755V18h-2.54V8.49023h2.399l.07 1.13379c.51-.87304 1.216-1.30957 2.118-1.30957.282 0 .545.03809.791.11426l-.035 2.44339zm.519 2.2851c0-.9433.181-1.7842.545-2.5224.363-.73832.885-1.3096 1.564-1.7139.686-.4043 1.48-.60645 2.382-.60645 1.283 0 2.329.39258 3.138 1.17774.814.78511 1.268 1.85161 1.362 3.19921l.018.6504c0 1.459-.408 2.6309-1.222 3.5156-.814.8789-1.907 1.3184-3.278 1.3184s-2.467-.4395-3.287-1.3184c-.815-.8789-1.222-2.0742-1.222-3.5859v-.1143zm2.54.1846c0 .9023.17 1.5937.51 2.0742.34.4746.826.7119 1.459.7119.615 0 1.095-.2343 1.441-.7031.346-.4746.519-1.2305.519-2.2676 0-.8847-.173-1.5703-.519-2.0566-.346-.4863-.832-.7295-1.459-.7295-.621 0-1.101.2432-1.441.7295-.34.4805-.51 1.2275-.51 2.2412zm16.594-.0088c0 1.4649-.334 2.6397-1.002 3.5244-.662.8789-1.559 1.3184-2.69 1.3184-.961 0-1.737-.334-2.329-1.002v4.4824h-2.54V8.49023h2.356l.087.93165c.616-.73829 1.418-1.10743 2.409-1.10743 1.172 0 2.083.4336 2.733 1.30078.65.86717.976 2.06247.976 3.58597v.1318zm-2.54-.1846c0-.8847-.159-1.5673-.475-2.0478-.311-.4805-.765-.7207-1.362-.7207-.797 0-1.345.3047-1.644.914v3.8936c.311.627.864.9404 1.661.9404 1.213 0 1.82-.9931 1.82-2.9795zm8.499 5.0274c-1.395 0-2.532-.4278-3.411-1.2832-.873-.8555-1.309-1.9951-1.309-3.419v-.2461c0-.955.184-1.8076.554-2.5576.369-.75584.89-1.33592 1.564-1.74021.68-.41016 1.453-.61524 2.32-.61524 1.301 0 2.324.41016 3.068 1.23047.75.82028 1.125 1.98338 1.125 3.48928v1.0371h-6.056c.082.6211.328 1.1191.738 1.4941.416.375.941.5625 1.574.5625.978 0 1.743-.3545 2.294-1.0634l1.248 1.3974c-.381.5391-.897.961-1.547 1.2656-.651.2989-1.371.4483-2.162.4483zm-.29-7.8047c-.504 0-.914.1699-1.231.5098-.31.3398-.51.8261-.598 1.4589h3.534v-.2021c-.012-.5625-.164-.9961-.457-1.3008-.293-.3105-.709-.4658-1.248-.4658zM417.096 18c-.117-.2285-.202-.5127-.255-.8525-.615.6855-1.415 1.0283-2.4 1.0283-.931 0-1.705-.2696-2.32-.8086-.609-.5391-.914-1.2188-.914-2.0391 0-1.0078.372-1.7812 1.116-2.3203.75-.539 1.831-.8115 3.243-.8174h1.169v-.5449c0-.4394-.114-.791-.342-1.0547-.223-.2637-.578-.3955-1.064-.3955-.428 0-.765.1026-1.011.3076-.24.2051-.36.4864-.36.8438h-2.54c0-.5508.17-1.0606.51-1.52932.34-.46875.82-.83496 1.441-1.09863.621-.26953 1.319-.4043 2.092-.4043 1.172 0 2.101.2959 2.786.8877.691.58594 1.037 1.41215 1.037 2.47855v4.122c.006.9024.132 1.585.378 2.0479V18h-2.566zm-2.101-1.7666c.375 0 .721-.082 1.037-.2461.317-.1699.551-.3955.703-.6768v-1.6347h-.949c-1.271 0-1.948.4394-2.03 1.3183l-.009.1495c0 .3164.111.5771.334.7822.223.2051.527.3076.914.3076zm8.578-7.74317l.079 1.09864c.68-.84961 1.591-1.27442 2.734-1.27442 1.008 0 1.758.2959 2.25.8877.492.5918.744 1.47655.756 2.65425V18h-2.54v-6.082c0-.5391-.118-.9287-.352-1.169-.234-.2461-.624-.3691-1.169-.3691-.715 0-1.251.3047-1.608.914V18h-2.54V8.49023h2.39zm22.087-3.28711v8.42868c0 1.4004-.439 2.5078-1.318 3.3223-.873.8145-2.069 1.2217-3.586 1.2217-1.494 0-2.681-.3955-3.56-1.1865-.879-.7911-1.327-1.878-1.344-3.2608V5.20312h2.636v8.44628c0 .8379.2 1.4502.598 1.8369.404.3809.961.5713 1.67.5713 1.482 0 2.235-.7793 2.259-2.3379V5.20312h2.645zm4.333 3.28711l.079 1.09864c.68-.84961 1.591-1.27442 2.734-1.27442 1.007 0 1.757.2959 2.25.8877.492.5918.744 1.47655.756 2.65425V18h-2.541v-6.082c0-.5391-.117-.9287-.351-1.169-.234-.2461-.624-.3691-1.169-.3691-.715 0-1.251.3047-1.608.914V18h-2.54V8.49023h2.39zM460.426 18h-2.549V8.49023h2.549V18zm-2.698-11.9707c0-.38086.126-.69434.377-.94043.258-.2461.607-.36914 1.046-.36914.434 0 .78.12304 1.037.36914.258.24609.387.55957.387.94043 0 .38672-.132.70312-.395.94922-.258.24609-.601.36914-1.029.36914-.427 0-.773-.12305-1.037-.36914-.258-.2461-.386-.5625-.386-.94922zm4.403 7.1279c0-.9433.181-1.7842.545-2.5224.363-.73832.885-1.3096 1.564-1.7139.686-.4043 1.48-.60645 2.382-.60645 1.283 0 2.329.39258 3.138 1.17774.814.78511 1.268 1.85161 1.362 3.19921l.018.6504c0 1.459-.408 2.6309-1.222 3.5156-.814.8789-1.907 1.3184-3.278 1.3184s-2.467-.4395-3.287-1.3184c-.815-.8789-1.222-2.0742-1.222-3.5859v-.1143zm2.54.1846c0 .9023.17 1.5937.51 2.0742.34.4746.826.7119 1.459.7119.615 0 1.095-.2343 1.441-.7031.346-.4746.519-1.2305.519-2.2676 0-.8847-.173-1.5703-.519-2.0566-.346-.4863-.832-.7295-1.459-.7295-.621 0-1.101.2432-1.441.7295-.34.4805-.51 1.2275-.51 2.2412zm10.371-4.85157l.079 1.09864c.68-.84961 1.591-1.27442 2.733-1.27442 1.008 0 1.758.2959 2.25.8877.493.5918.745 1.47655.756 2.65425V18h-2.54v-6.082c0-.5391-.117-.9287-.351-1.169-.235-.2461-.624-.3691-1.169-.3691-.715 0-1.251.3047-1.609.914V18h-2.54V8.49023h2.391zm7.427.64161l-1.196-.69434c.504-.79102.765-1.6084.783-2.45215V4.5h2.021v1.3623c0 .52735-.146 1.09864-.439 1.71387-.293.61524-.683 1.13379-1.169 1.55567zm6.512 6.24026c0-.3106-.155-.5537-.465-.7295-.305-.1817-.797-.3428-1.477-.4834-2.262-.4746-3.393-1.4356-3.393-2.8828 0-.8438.349-1.54691 1.046-2.10941.704-.56836 1.62-.85254 2.751-.85254 1.207 0 2.171.28418 2.892.85254.727.56836 1.09 1.30661 1.09 2.21481h-2.54c0-.3632-.117-.6621-.352-.8964-.234-.2403-.6-.3604-1.098-.3604-.428 0-.759.0967-.994.29-.234.1934-.351.4395-.351.7383 0 .2813.132.5098.395.6856.27.1699.721.3193 1.354.4482.633.1231 1.166.2637 1.599.4219 1.342.4922 2.013 1.3447 2.013 2.5576 0 .8672-.372 1.5703-1.116 2.1094-.744.5332-1.705.7998-2.883.7998-.797 0-1.506-.1406-2.127-.4219-.615-.2871-1.098-.6768-1.45-1.1689-.352-.4981-.527-1.0342-.527-1.6084h2.408c.023.4511.19.7968.501 1.0371.31.2402.726.3603 1.248.3603.486 0 .852-.0908 1.099-.2724.251-.1875.377-.4307.377-.7295zM508.159 18h-2.637v-5.4844h-5.141V18h-2.637V5.20312h2.637v5.18558h5.141V5.20312h2.637V18zm1.749-4.8428c0-.9433.182-1.7842.545-2.5224.363-.73832.885-1.3096 1.565-1.7139.685-.4043 1.479-.60645 2.381-.60645 1.284 0 2.33.39258 3.138 1.17774.815.78511 1.269 1.85161 1.362 3.19921l.018.6504c0 1.459-.407 2.6309-1.222 3.5156-.814.8789-1.907 1.3184-3.278 1.3184s-2.467-.4395-3.287-1.3184c-.815-.8789-1.222-2.0742-1.222-3.5859v-.1143zm2.54.1846c0 .9023.17 1.5937.51 2.0742.34.4746.826.7119 1.459.7119.615 0 1.096-.2343 1.441-.7031.346-.4746.519-1.2305.519-2.2676 0-.8847-.173-1.5703-.519-2.0566-.345-.4863-.832-.7295-1.459-.7295-.621 0-1.101.2432-1.441.7295-.34.4805-.51 1.2275-.51 2.2412zm13.377-2.4697c-.346-.0469-.65-.0703-.914-.0703-.961 0-1.591.3252-1.89.9755V18h-2.54V8.49023h2.4l.07 1.13379c.51-.87304 1.216-1.30957 2.118-1.30957.282 0 .545.03809.791.11426l-.035 2.44339zM529.736 18h-2.548V8.49023h2.548V18zm-2.698-11.9707c0-.38086.126-.69434.378-.94043.258-.2461.606-.36914 1.046-.36914.434 0 .779.12304 1.037.36914.258.24609.387.55957.387.94043 0 .38672-.132.70312-.396.94922-.258.24609-.6.36914-1.028.36914-.428 0-.774-.12305-1.037-.36914-.258-.2461-.387-.5625-.387-.94922zm7.717 9.9228h4.649V18h-7.892v-1.5469l4.473-5.9062h-4.341V8.49023h7.62v1.50293l-4.509 5.95894zm5.704-2.7949c0-.9433.182-1.7842.545-2.5224.363-.73832.885-1.3096 1.564-1.7139.686-.4043 1.48-.60645 2.382-.60645 1.283 0 2.329.39258 3.138 1.17774.814.78511 1.268 1.85161 1.362 3.19921l.018.6504c0 1.459-.407 2.6309-1.222 3.5156-.814.8789-1.907 1.3184-3.278 1.3184s-2.467-.4395-3.287-1.3184c-.815-.8789-1.222-2.0742-1.222-3.5859v-.1143zm2.54.1846c0 .9023.17 1.5937.51 2.0742.34.4746.826.7119 1.459.7119.615 0 1.095-.2343 1.441-.7031.346-.4746.519-1.2305.519-2.2676 0-.8847-.173-1.5703-.519-2.0566-.346-.4863-.832-.7295-1.459-.7295-.621 0-1.101.2432-1.441.7295-.34.4805-.51 1.2275-.51 2.2412zm10.371-4.85157l.079 1.09864c.68-.84961 1.591-1.27442 2.734-1.27442 1.007 0 1.757.2959 2.25.8877.492.5918.744 1.47655.755 2.65425V18h-2.54v-6.082c0-.5391-.117-.9287-.351-1.169-.235-.2461-.624-.3691-1.169-.3691-.715 0-1.251.3047-1.608.914V18h-2.541V8.49023h2.391zM574.271 18h-8.772v-1.7402l4.14-4.4121c.568-.6211.987-1.1631 1.257-1.626.275-.46291.413-.90236.413-1.31838 0-.56836-.144-1.01367-.431-1.33594-.287-.32812-.697-.49218-1.231-.49218-.574 0-1.028.19921-1.362.59765-.328.39258-.492.91113-.492 1.55567h-2.549c0-.7793.185-1.49122.554-2.13575.375-.64453.902-1.14843 1.582-1.51172.68-.36914 1.45-.55371 2.311-.55371 1.319 0 2.341.31641 3.068.94922.732.63282 1.098 1.52637 1.098 2.68067 0 .63281-.164 1.27734-.492 1.93357-.328.6563-.89 1.4209-1.687 2.294l-2.909 3.0673h5.502V18zm10.177-5.291c0 1.7695-.366 3.123-1.098 4.0605-.733.9375-1.805 1.4063-3.217 1.4063-1.395 0-2.461-.46-3.199-1.3799-.739-.9199-1.117-2.2383-1.134-3.9551v-2.3554c0-1.78716.369-3.1436 1.107-4.06938.744-.92579 1.814-1.38868 3.208-1.38868 1.395 0 2.461.45996 3.199 1.37989.739.91406 1.117 2.22949 1.134 3.94627v2.3555zm-2.54-2.584c0-1.06055-.146-1.83105-.439-2.31152-.287-.48633-.739-.7295-1.354-.7295-.597 0-1.04.23145-1.327.69434-.281.45703-.431 1.1748-.448 2.15332V13.043c0 1.0429.14 1.8193.422 2.3291.287.5039.744.7558 1.371.7558.621 0 1.069-.2431 1.345-.7295.275-.4863.418-1.2304.43-2.2324v-3.041zM594.942 18h-8.771v-1.7402l4.14-4.4121c.568-.6211.987-1.1631 1.256-1.626.276-.46291.413-.90236.413-1.31838 0-.56836-.143-1.01367-.43-1.33594-.287-.32812-.697-.49218-1.231-.49218-.574 0-1.028.19921-1.362.59765-.328.39258-.492.91113-.492 1.55567h-2.549c0-.7793.185-1.49122.554-2.13575.375-.64453.902-1.14843 1.582-1.51172.679-.36914 1.45-.55371 2.311-.55371 1.319 0 2.341.31641 3.068.94922.732.63282 1.098 1.52637 1.098 2.68067 0 .63281-.164 1.27734-.492 1.93357-.328.6563-.891 1.4209-1.687 2.294l-2.91 3.0673h5.502V18zm10.178-5.291c0 1.7695-.366 3.123-1.099 4.0605-.732.9375-1.804 1.4063-3.216 1.4063-1.395 0-2.461-.46-3.2-1.3799-.738-.9199-1.116-2.2383-1.133-3.9551v-2.3554c0-1.78716.369-3.1436 1.107-4.06938.744-.92579 1.814-1.38868 3.208-1.38868 1.395 0 2.461.45996 3.199 1.37989.739.91406 1.117 2.22949 1.134 3.94627v2.3555zm-2.54-2.584c0-1.06055-.146-1.83105-.439-2.31152-.287-.48633-.739-.7295-1.354-.7295-.598 0-1.04.23145-1.327.69434-.281.45703-.431 1.1748-.448 2.15332V13.043c0 1.0429.14 1.8193.422 2.3291.287.5039.744.7558 1.371.7558.621 0 1.069-.2431 1.344-.7295.276-.4863.419-1.2304.431-2.2324v-3.041zm14.194.7471c-.345-.0469-.65-.0703-.914-.0703-.961 0-1.59.3252-1.889.9755V18h-2.54V8.49023h2.399l.07 1.13379c.51-.87304 1.216-1.30957 2.119-1.30957.281 0 .544.03809.791.11426l-.036 2.44339zm5.432 7.3037c-1.394 0-2.531-.4278-3.41-1.2832-.873-.8555-1.31-1.9951-1.31-3.419v-.2461c0-.955.185-1.8076.554-2.5576.369-.75584.891-1.33592 1.564-1.74021.68-.41016 1.454-.61524 2.321-.61524 1.301 0 2.323.41016 3.067 1.23047.75.82028 1.125 1.98338 1.125 3.48928v1.0371h-6.055c.082.6211.328 1.1191.738 1.4941.416.375.94.5625 1.573.5625.979 0 1.743-.3545 2.294-1.0634l1.248 1.3974c-.381.5391-.896.961-1.547 1.2656-.65.2989-1.371.4483-2.162.4483zm-.29-7.8047c-.504 0-.914.1699-1.23.5098-.311.3398-.51.8261-.598 1.4589h3.533v-.2021c-.012-.5625-.164-.9961-.457-1.3008-.293-.3105-.709-.4658-1.248-.4658zm10.802 5.001c0-.3106-.156-.5537-.466-.7295-.305-.1817-.797-.3428-1.477-.4834-2.261-.4746-3.392-1.4356-3.392-2.8828 0-.8438.348-1.54691 1.046-2.10941.703-.56836 1.62-.85254 2.751-.85254 1.207 0 2.171.28418 2.891.85254.727.56836 1.09 1.30661 1.09 2.21481h-2.54c0-.3632-.117-.6621-.351-.8964-.235-.2403-.601-.3604-1.099-.3604-.428 0-.759.0967-.993.29-.235.1934-.352.4395-.352.7383 0 .2813.132.5098.396.6856.269.1699.72.3193 1.353.4482.633.1231 1.166.2637 1.6.4219 1.342.4922 2.013 1.3447 2.013 2.5576 0 .8672-.373 1.5703-1.117 2.1094-.744.5332-1.705.7998-2.883.7998-.796 0-1.505-.1406-2.126-.4219-.616-.2871-1.099-.6768-1.451-1.1689-.351-.4981-.527-1.0342-.527-1.6084h2.408c.024.4511.191.7968.501 1.0371.311.2402.727.3603 1.248.3603.487 0 .853-.0908 1.099-.2724.252-.1875.378-.4307.378-.7295zm8.49 2.8037c-1.395 0-2.531-.4278-3.41-1.2832-.873-.8555-1.31-1.9951-1.31-3.419v-.2461c0-.955.185-1.8076.554-2.5576.369-.75584.891-1.33592 1.564-1.74021.68-.41016 1.454-.61524 2.321-.61524 1.301 0 2.323.41016 3.067 1.23047.75.82028 1.125 1.98338 1.125 3.48928v1.0371h-6.056c.083.6211.329 1.1191.739 1.4941.416.375.94.5625 1.573.5625.979 0 1.743-.3545 2.294-1.0634l1.248 1.3974c-.381.5391-.896.961-1.547 1.2656-.65.2989-1.371.4483-2.162.4483zm-.29-7.8047c-.504 0-.914.1699-1.23.5098-.311.3398-.51.8261-.598 1.4589h3.533v-.2021c-.012-.5625-.164-.9961-.457-1.3008-.293-.3105-.709-.4658-1.248-.4658zM652.08 18c-.117-.2285-.202-.5127-.255-.8525-.615.6855-1.415 1.0283-2.399 1.0283-.932 0-1.705-.2696-2.321-.8086-.609-.5391-.914-1.2188-.914-2.0391 0-1.0078.372-1.7812 1.117-2.3203.75-.539 1.831-.8115 3.243-.8174h1.169v-.5449c0-.4394-.115-.791-.343-1.0547-.223-.2637-.577-.3955-1.064-.3955-.427 0-.764.1026-1.01.3076-.241.2051-.361.4864-.361.8438h-2.54c0-.5508.17-1.0606.51-1.52932.34-.46875.82-.83496 1.442-1.09863.621-.26953 1.318-.4043 2.091-.4043 1.172 0 2.101.2959 2.786.8877.692.58594 1.038 1.41215 1.038 2.47855v4.122c.005.9024.131 1.585.377 2.0479V18h-2.566zm-2.101-1.7666c.375 0 .721-.082 1.038-.2461.316-.1699.55-.3955.703-.6768v-1.6347h-.949c-1.272 0-1.949.4394-2.031 1.3183l-.009.1495c0 .3164.112.5771.334.7822.223.2051.528.3076.914.3076zm11.584-5.3613c-.345-.0469-.65-.0703-.914-.0703-.961 0-1.59.3252-1.889.9755V18h-2.54V8.49023h2.399l.07 1.13379c.51-.87304 1.216-1.30957 2.119-1.30957.281 0 .545.03809.791.11426l-.036 2.44339zm5.01 5.2558c.469 0 .85-.1289 1.143-.3867.293-.2578.445-.6006.457-1.0283h2.382c-.006.6445-.182 1.2363-.528 1.7754-.345.5332-.82.9492-1.423 1.248-.598.293-1.26.4395-1.987.4395-1.359 0-2.431-.4307-3.217-1.292-.785-.8672-1.177-2.0625-1.177-3.5859v-.167c0-1.4649.389-2.6338 1.169-3.50688.779-.87304 1.848-1.30957 3.208-1.30957 1.189 0 2.141.33985 2.856 1.01953.721.67382 1.087 1.57322 1.099 2.69822h-2.382c-.012-.4922-.164-.8906-.457-1.1953-.293-.3105-.68-.4658-1.16-.4658-.592 0-1.04.2168-1.345.6504-.299.4277-.448 1.125-.448 2.0918v.2637c0 .9785.149 1.6816.448 2.1093.299.4278.753.6416 1.362.6416zm7.91-6.60056c.674-.80859 1.521-1.21289 2.54-1.21289 2.063 0 3.109 1.19825 3.138 3.59475V18h-2.54v-6.0205c0-.5449-.117-.9463-.351-1.2041-.235-.2637-.624-.3955-1.169-.3955-.745 0-1.284.2871-1.618.8613V18h-2.54V4.5h2.54v5.02734zM692.07 18c-.117-.2285-.202-.5127-.255-.8525-.615.6855-1.415 1.0283-2.399 1.0283-.932 0-1.705-.2696-2.32-.8086-.61-.5391-.914-1.2188-.914-2.0391 0-1.0078.372-1.7812 1.116-2.3203.75-.539 1.831-.8115 3.243-.8174h1.169v-.5449c0-.4394-.114-.791-.343-1.0547-.222-.2637-.577-.3955-1.063-.3955-.428 0-.765.1026-1.011.3076-.24.2051-.36.4864-.36.8438h-2.54c0-.5508.169-1.0606.509-1.52932.34-.46875.821-.83496 1.442-1.09863.621-.26953 1.318-.4043 2.092-.4043 1.171 0 2.1.2959 2.786.8877.691.58594 1.037 1.41215 1.037 2.47855v4.122c.006.9024.132 1.585.378 2.0479V18h-2.567zm-2.1-1.7666c.375 0 .72-.082 1.037-.2461.316-.1699.551-.3955.703-.6768v-1.6347h-.949c-1.272 0-1.949.4394-2.031 1.3183l-.008.1495c0 .3164.111.5771.334.7822.222.2051.527.3076.914.3076zm8.578-7.74317l.079 1.09864c.68-.84961 1.591-1.27442 2.733-1.27442 1.008 0 1.758.2959 2.25.8877.493.5918.744 1.47655.756 2.65425V18h-2.54v-6.082c0-.5391-.117-.9287-.351-1.169-.235-.2461-.624-.3691-1.169-.3691-.715 0-1.251.3047-1.609.914V18h-2.54V8.49023h2.391zm7.356 4.68457c0-1.4824.331-2.6631.993-3.54199.668-.8789 1.58-1.31836 2.734-1.31836.926 0 1.69.34571 2.294 1.03711V4.5h2.549V18h-2.294l-.123-1.0107c-.633.791-1.448 1.1865-2.444 1.1865-1.119 0-2.018-.4395-2.698-1.3184-.674-.8847-1.011-2.1123-1.011-3.6826zm2.54.1846c0 .8906.156 1.5732.466 2.0478.311.4746.762.7119 1.354.7119.785 0 1.339-.331 1.661-.9931v-3.753c-.317-.6621-.864-.9931-1.644-.9931-1.224 0-1.837.9931-1.837 2.9795zM723.605 18h-2.548V8.49023h2.548V18zm-2.698-11.9707c0-.38086.126-.69434.378-.94043.258-.2461.607-.36914 1.046-.36914.434 0 .779.12304 1.037.36914.258.24609.387.55957.387.94043 0 .38672-.132.70312-.396.94922-.257.24609-.6.36914-1.028.36914-.428 0-.773-.12305-1.037-.36914-.258-.2461-.387-.5625-.387-.94922zm7.137 2.46093l.079 1.09864c.68-.84961 1.591-1.27442 2.733-1.27442 1.008 0 1.758.2959 2.25.8877.493.5918.745 1.47655.756 2.65425V18h-2.54v-6.082c0-.5391-.117-.9287-.351-1.169-.235-.2461-.624-.3691-1.169-.3691-.715 0-1.251.3047-1.609.914V18h-2.54V8.49023h2.391zm10.09 0l.079 1.09864c.68-.84961 1.591-1.27442 2.733-1.27442 1.008 0 1.758.2959 2.25.8877.492.5918.744 1.47655.756 2.65425V18h-2.54v-6.082c0-.5391-.117-.9287-.351-1.169-.235-.2461-.624-.3691-1.169-.3691-.715 0-1.251.3047-1.609.914V18h-2.54V8.49023h2.391zm7.356 4.66697c0-.9433.182-1.7842.545-2.5224.363-.73832.885-1.3096 1.565-1.7139.685-.4043 1.479-.60645 2.381-.60645 1.284 0 2.33.39258 3.138 1.17774.815.78511 1.269 1.85161 1.362 3.19921l.018.6504c0 1.459-.407 2.6309-1.222 3.5156-.814.8789-1.907 1.3184-3.278 1.3184s-2.467-.4395-3.287-1.3184c-.815-.8789-1.222-2.0742-1.222-3.5859v-.1143zm2.54.1846c0 .9023.17 1.5937.51 2.0742.34.4746.826.7119 1.459.7119.615 0 1.096-.2343 1.441-.7031.346-.4746.519-1.2305.519-2.2676 0-.8847-.173-1.5703-.519-2.0566-.345-.4863-.832-.7295-1.459-.7295-.621 0-1.101.2432-1.441.7295-.34.4805-.51 1.2275-.51 2.2412zm11.452 1.5557l1.767-6.40727h2.654L760.695 18h-2.425l-3.208-9.50977h2.654l1.766 6.40727zM770.398 18c-.117-.2285-.202-.5127-.254-.8525-.616.6855-1.415 1.0283-2.4 1.0283-.932 0-1.705-.2696-2.32-.8086-.61-.5391-.914-1.2188-.914-2.0391 0-1.0078.372-1.7812 1.116-2.3203.75-.539 1.831-.8115 3.243-.8174h1.169v-.5449c0-.4394-.114-.791-.343-1.0547-.222-.2637-.577-.3955-1.063-.3955-.428 0-.765.1026-1.011.3076-.24.2051-.36.4864-.36.8438h-2.54c0-.5508.17-1.0606.509-1.52932.34-.46875.821-.83496 1.442-1.09863.621-.26953 1.318-.4043 2.092-.4043 1.172 0 2.1.2959 2.786.8877.691.58594 1.037 1.41215 1.037 2.47855v4.122c.006.9024.132 1.585.378 2.0479V18h-2.567zm-2.1-1.7666c.375 0 .721-.082 1.037-.2461.316-.1699.551-.3955.703-.6768v-1.6347h-.949c-1.272 0-1.948.4394-2.03 1.3183l-.009.1495c0 .3164.111.5771.334.7822.222.2051.527.3076.914.3076zm9.281-10.08106v2.33789h1.626v1.86327h-1.626v4.7461c0 .3516.067.6035.202.7559.135.1523.393.2285.774.2285.281 0 .53-.0205.747-.0615v1.9248c-.498.1523-1.011.2285-1.538.2285-1.782 0-2.69-.8994-2.725-2.6983v-5.124h-1.389V8.49023h1.389V6.15234h2.54zM783.301 18h-2.549V8.49023h2.549V18zm-2.698-11.9707c0-.38086.126-.69434.377-.94043.258-.2461.607-.36914 1.046-.36914.434 0 .78.12304 1.037.36914.258.24609.387.55957.387.94043 0 .38672-.132.70312-.395.94922-.258.24609-.601.36914-1.029.36914-.427 0-.773-.12305-1.037-.36914-.258-.2461-.386-.5625-.386-.94922zm4.403 7.1279c0-.9433.182-1.7842.545-2.5224.363-.73832.885-1.3096 1.564-1.7139.686-.4043 1.48-.60645 2.382-.60645 1.283 0 2.329.39258 3.138 1.17774.814.78511 1.268 1.85161 1.362 3.19921l.018.6504c0 1.459-.408 2.6309-1.222 3.5156-.814.8789-1.907 1.3184-3.278 1.3184s-2.467-.4395-3.287-1.3184c-.815-.8789-1.222-2.0742-1.222-3.5859v-.1143zm2.54.1846c0 .9023.17 1.5937.51 2.0742.34.4746.826.7119 1.459.7119.615 0 1.095-.2343 1.441-.7031.346-.4746.519-1.2305.519-2.2676 0-.8847-.173-1.5703-.519-2.0566-.346-.4863-.832-.7295-1.459-.7295-.621 0-1.101.2432-1.441.7295-.34.4805-.51 1.2275-.51 2.2412zm10.371-4.85157l.079 1.09864c.68-.84961 1.591-1.27442 2.733-1.27442 1.008 0 1.758.2959 2.25.8877.493.5918.745 1.47655.756 2.65425V18h-2.54v-6.082c0-.5391-.117-.9287-.351-1.169-.235-.2461-.624-.3691-1.169-.3691-.715 0-1.251.3047-1.609.914V18h-2.54V8.49023h2.391zm20.795 4.84277c0 1.4649-.334 2.6397-1.002 3.5244-.662.8789-1.559 1.3184-2.689 1.3184-.961 0-1.738-.334-2.33-1.002v4.4824h-2.54V8.49023h2.356l.088.93165c.615-.73829 1.418-1.10743 2.408-1.10743 1.172 0 2.083.4336 2.733 1.30078.651.86717.976 2.06247.976 3.58597v.1318zm-2.54-.1846c0-.8847-.158-1.5673-.475-2.0478-.31-.4805-.764-.7207-1.362-.7207-.797 0-1.345.3047-1.644.914v3.8936c.311.627.865.9404 1.662.9404 1.212 0 1.819-.9931 1.819-2.9795zm9.466-2.2763c-.346-.0469-.651-.0703-.914-.0703-.961 0-1.591.3252-1.89.9755V18h-2.54V8.49023h2.399l.071 1.13379c.509-.87304 1.215-1.30957 2.118-1.30957.281 0 .545.03809.791.11426l-.035 2.44339zm.518 2.2851c0-.9433.182-1.7842.545-2.5224.363-.73832.885-1.3096 1.565-1.7139.685-.4043 1.479-.60645 2.381-.60645 1.284 0 2.33.39258 3.138 1.17774.815.78511 1.269 1.85161 1.362 3.19921l.018.6504c0 1.459-.407 2.6309-1.222 3.5156-.814.8789-1.907 1.3184-3.278 1.3184s-2.467-.4395-3.287-1.3184c-.815-.8789-1.222-2.0742-1.222-3.5859v-.1143zm2.54.1846c0 .9023.17 1.5937.51 2.0742.34.4746.826.7119 1.459.7119.615 0 1.096-.2343 1.441-.7031.346-.4746.519-1.2305.519-2.2676 0-.8847-.173-1.5703-.519-2.0566-.345-.4863-.832-.7295-1.459-.7295-.621 0-1.101.2432-1.441.7295-.34.4805-.51 1.2275-.51 2.2412zm7.664-.167c0-1.459.346-2.6338 1.037-3.52441.698-.89062 1.635-1.33594 2.813-1.33594 1.043 0 1.854.35743 2.435 1.07227l.105-.89649h2.303v9.19337c0 .832-.191 1.5557-.572 2.1709-.375.6152-.905 1.084-1.59 1.4062-.686.3223-1.489.4834-2.409.4834-.697 0-1.377-.1406-2.039-.4218-.662-.2754-1.163-.6328-1.503-1.0723l1.125-1.5469c.633.709 1.401 1.0635 2.303 1.0635.674 0 1.198-.1816 1.573-.5449.375-.3574.563-.8672.563-1.5293v-.5098c-.586.6621-1.357.9932-2.312.9932-1.142 0-2.068-.4453-2.777-1.336-.703-.8964-1.055-2.083-1.055-3.5595v-.1055zm2.54.1846c0 .8613.173 1.5381.519 2.0302.346.4864.82.7295 1.424.7295.773 0 1.327-.29 1.661-.8701V11.25c-.34-.5801-.888-.8701-1.644-.8701-.609 0-1.089.249-1.441.7471-.346.498-.519 1.2421-.519 2.2324zm13.456-2.4873c-.345-.0469-.65-.0703-.914-.0703-.961 0-1.59.3252-1.889.9755V18h-2.54V8.49023h2.399l.07 1.13379c.51-.87304 1.216-1.30957 2.119-1.30957.281 0 .545.03809.791.11426l-.036 2.44339zM858.834 18c-.117-.2285-.202-.5127-.255-.8525-.615.6855-1.415 1.0283-2.399 1.0283-.932 0-1.705-.2696-2.321-.8086-.609-.5391-.914-1.2188-.914-2.0391 0-1.0078.372-1.7812 1.117-2.3203.75-.539 1.831-.8115 3.243-.8174h1.169v-.5449c0-.4394-.115-.791-.343-1.0547-.223-.2637-.577-.3955-1.064-.3955-.427 0-.764.1026-1.01.3076-.241.2051-.361.4864-.361.8438h-2.54c0-.5508.17-1.0606.51-1.52932.34-.46875.82-.83496 1.441-1.09863.622-.26953 1.319-.4043 2.092-.4043 1.172 0 2.101.2959 2.786.8877.692.58594 1.037 1.41215 1.037 2.47855v4.122c.006.9024.132 1.585.378 2.0479V18h-2.566zm-2.101-1.7666c.375 0 .721-.082 1.038-.2461.316-.1699.55-.3955.703-.6768v-1.6347h-.95c-1.271 0-1.948.4394-2.03 1.3183l-.009.1495c0 .3164.112.5771.334.7822.223.2051.528.3076.914.3076zm8.622-7.74317l.08 1.06348c.673-.82617 1.585-1.23926 2.733-1.23926 1.225 0 2.065.4834 2.522 1.4502.668-.9668 1.621-1.4502 2.857-1.4502 1.031 0 1.799.30176 2.303.90528.504.59765.755 1.49997.755 2.70707V18h-2.548v-6.0645c0-.539-.106-.9316-.317-1.1777-.211-.2519-.583-.3779-1.116-.3779-.762 0-1.289.3633-1.582 1.0898L871.051 18h-2.54v-6.0557c0-.5507-.109-.9492-.325-1.1953-.217-.2461-.586-.3691-1.108-.3691-.721 0-1.242.2988-1.564.8965V18h-2.54V8.49023h2.381zm15.592 0l.079 1.06348c.674-.82617 1.585-1.23926 2.734-1.23926 1.224 0 2.065.4834 2.522 1.4502.668-.9668 1.62-1.4502 2.857-1.4502 1.031 0 1.799.30176 2.302.90528.504.59765.756 1.49997.756 2.70707V18h-2.549v-6.0645c0-.539-.105-.9316-.316-1.1777-.211-.2519-.583-.3779-1.116-.3779-.762 0-1.289.3633-1.582 1.0898L886.643 18h-2.54v-6.0557c0-.5507-.109-.9492-.326-1.1953-.216-.2461-.586-.3691-1.107-.3691-.721 0-1.242.2988-1.565.8965V18h-2.54V8.49023h2.382zm17.587 9.68557c-1.394 0-2.531-.4278-3.41-1.2832-.873-.8555-1.31-1.9951-1.31-3.419v-.2461c0-.955.185-1.8076.554-2.5576.369-.75584.891-1.33592 1.565-1.74021.679-.41016 1.453-.61524 2.32-.61524 1.301 0 2.323.41016 3.067 1.23047.75.82028 1.125 1.98338 1.125 3.48928v1.0371h-6.055c.082.6211.328 1.1191.738 1.4941.416.375.94.5625 1.573.5625.979 0 1.743-.3545 2.294-1.0634l1.248 1.3974c-.381.5391-.896.961-1.547 1.2656-.65.2989-1.371.4483-2.162.4483zm-.29-7.8047c-.504 0-.914.1699-1.23.5098-.311.3398-.51.8261-.598 1.4589h3.533v-.2021c-.011-.5625-.164-.9961-.457-1.3008-.293-.3105-.709-.4658-1.248-.4658zm15.829 6.6621c-.627.7617-1.494 1.1426-2.601 1.1426-1.02 0-1.799-.293-2.338-.8789-.533-.586-.806-1.4444-.818-2.5752V8.49023h2.54v6.14357c0 .9902.452 1.4853 1.354 1.4853.861 0 1.453-.2988 1.775-.8964V8.49023h2.549V18h-2.39l-.071-.9668zm6.715-8.54297l.079 1.09864c.68-.84961 1.591-1.27442 2.734-1.27442 1.007 0 1.757.2959 2.25.8877.492.5918.744 1.47655.755 2.65425V18h-2.54v-6.082c0-.5391-.117-.9287-.351-1.169-.235-.2461-.624-.3691-1.169-.3691-.715 0-1.251.3047-1.608.914V18h-2.541V8.49023h2.391zm7.357 4.68457c0-1.4824.331-2.6631.993-3.54199.668-.8789 1.579-1.31836 2.733-1.31836.926 0 1.691.34571 2.294 1.03711V4.5h2.549V18h-2.294l-.123-1.0107c-.633.791-1.447 1.1865-2.443 1.1865-1.12 0-2.019-.4395-2.699-1.3184-.674-.8847-1.01-2.1123-1.01-3.6826zm2.54.1846c0 .8906.155 1.5732.465 2.0478.311.4746.762.7119 1.354.7119.785 0 1.339-.331 1.661-.9931v-3.753c-.316-.6621-.864-.9931-1.644-.9931-1.224 0-1.836.9931-1.836 2.9795zm12.375 4.8164c-1.395 0-2.532-.4278-3.411-1.2832-.873-.8555-1.309-1.9951-1.309-3.419v-.2461c0-.955.184-1.8076.554-2.5576.369-.75584.89-1.33592 1.564-1.74021.68-.41016 1.453-.61524 2.32-.61524 1.301 0 2.324.41016 3.068 1.23047.75.82028 1.125 1.98338 1.125 3.48928v1.0371h-6.056c.082.6211.328 1.1191.738 1.4941.416.375.941.5625 1.574.5625.978 0 1.743-.3545 2.294-1.0634l1.248 1.3974c-.381.5391-.897.961-1.547 1.2656-.651.2989-1.371.4483-2.162.4483zm-.29-7.8047c-.504 0-.915.1699-1.231.5098-.31.3398-.51.8261-.598 1.4589h3.534v-.2021c-.012-.5625-.164-.9961-.457-1.3008-.293-.3105-.709-.4658-1.248-.4658zm10.995.501c-.346-.0469-.651-.0703-.914-.0703-.961 0-1.591.3252-1.89.9755V18h-2.54V8.49023h2.399l.071 1.13379c.509-.87304 1.215-1.30957 2.118-1.30957.281 0 .545.03809.791.11426l-.035 2.44339zM367.068 34.1748c0-1.459.346-2.6338 1.037-3.5244.698-.8906 1.635-1.3359 2.813-1.3359 1.043 0 1.854.3574 2.435 1.0722l.105-.8965h2.303v9.1934c0 .832-.191 1.5557-.572 2.1709-.375.6152-.905 1.084-1.59 1.4062-.686.3223-1.489.4834-2.409.4834-.697 0-1.377-.1406-2.039-.4218-.662-.2754-1.163-.6328-1.503-1.0723l1.125-1.5469c.633.709 1.401 1.0635 2.303 1.0635.674 0 1.198-.1816 1.573-.5449.375-.3574.563-.8672.563-1.5293v-.5098c-.586.6621-1.357.9932-2.312.9932-1.142 0-2.068-.4453-2.777-1.336-.703-.8964-1.055-2.083-1.055-3.5595v-.1055zm2.54.1846c0 .8613.173 1.5381.519 2.0302.346.4864.82.7295 1.424.7295.773 0 1.327-.29 1.661-.8701V32.25c-.34-.5801-.888-.8701-1.644-.8701-.609 0-1.089.249-1.441.7471-.346.498-.519 1.2421-.519 2.2324zm13.456-2.4873c-.345-.0469-.65-.0703-.914-.0703-.961 0-1.59.3252-1.889.9755V39h-2.54v-9.5098h2.399l.07 1.1338c.51-.873 1.216-1.3095 2.119-1.3095.281 0 .545.038.791.1142l-.036 2.4434zM389.542 39c-.117-.2285-.202-.5127-.255-.8525-.615.6855-1.415 1.0283-2.399 1.0283-.932 0-1.705-.2696-2.321-.8086-.609-.5391-.914-1.2188-.914-2.0391 0-1.0078.372-1.7812 1.117-2.3203.75-.539 1.831-.8115 3.243-.8174h1.169v-.5449c0-.4394-.115-.791-.343-1.0547-.223-.2637-.577-.3955-1.064-.3955-.427 0-.764.1026-1.01.3076-.241.2051-.361.4864-.361.8438h-2.54c0-.5508.17-1.0606.51-1.5293.34-.4688.82-.835 1.441-1.0986.622-.2696 1.319-.4043 2.092-.4043 1.172 0 2.101.2959 2.786.8876.692.586 1.037 1.4122 1.037 2.4786v4.122c.006.9024.132 1.585.378 2.0479V39h-2.566zm-2.101-1.7666c.375 0 .721-.082 1.038-.2461.316-.1699.55-.3955.703-.6768v-1.6347h-.95c-1.271 0-1.948.4394-2.03 1.3183l-.009.1495c0 .3164.112.5771.334.7822.223.2051.528.3076.914.3076zm8.579-7.7432l.079 1.0987c.679-.8496 1.59-1.2744 2.733-1.2744 1.008 0 1.758.2959 2.25.8876.492.5918.744 1.4766.756 2.6543V39h-2.54v-6.082c0-.5391-.117-.9287-.352-1.169-.234-.2461-.624-.3691-1.169-.3691-.715 0-1.251.3047-1.608.914V39h-2.54v-9.5098h2.391zm10.792-2.3379v2.3379h1.626v1.8633h-1.626v4.7461c0 .3516.068.6035.203.7559.134.1523.392.2285.773.2285.281 0 .53-.0205.747-.0615v1.9248c-.498.1523-1.011.2285-1.538.2285-1.781 0-2.689-.8994-2.725-2.6983v-5.124h-1.388v-1.8633h1.388v-2.3379h2.54zM419.847 39c-.118-.2285-.202-.5127-.255-.8525-.615.6855-1.415 1.0283-2.4 1.0283-.931 0-1.705-.2696-2.32-.8086-.609-.5391-.914-1.2188-.914-2.0391 0-1.0078.372-1.7812 1.116-2.3203.75-.539 1.831-.8115 3.243-.8174h1.169v-.5449c0-.4394-.114-.791-.342-1.0547-.223-.2637-.578-.3955-1.064-.3955-.428 0-.765.1026-1.011.3076-.24.2051-.36.4864-.36.8438h-2.54c0-.5508.17-1.0606.51-1.5293.34-.4688.82-.835 1.441-1.0986.621-.2696 1.318-.4043 2.092-.4043 1.172 0 2.1.2959 2.786.8876.691.586 1.037 1.4122 1.037 2.4786v4.122c.006.9024.132 1.585.378 2.0479V39h-2.566zm-2.101-1.7666c.375 0 .721-.082 1.037-.2461.317-.1699.551-.3955.703-.6768v-1.6347h-.949c-1.271 0-1.948.4394-2.03 1.3183l-.009.1495c0 .3164.111.5771.334.7822.223.2051.527.3076.914.3076zm5.871-3.0586c0-1.459.346-2.6338 1.037-3.5244.698-.8906 1.635-1.3359 2.813-1.3359 1.043 0 1.854.3574 2.434 1.0722l.106-.8965h2.303v9.1934c0 .832-.191 1.5557-.572 2.1709-.375.6152-.905 1.084-1.591 1.4062-.685.3223-1.488.4834-2.408.4834-.697 0-1.377-.1406-2.039-.4218-.662-.2754-1.163-.6328-1.503-1.0723l1.125-1.5469c.633.709 1.401 1.0635 2.303 1.0635.674 0 1.198-.1816 1.573-.5449.375-.3574.563-.8672.563-1.5293v-.5098c-.586.6621-1.357.9932-2.312.9932-1.142 0-2.068-.4453-2.777-1.336-.703-.8964-1.055-2.083-1.055-3.5595v-.1055zm2.54.1846c0 .8613.173 1.5381.519 2.0302.345.4864.82.7295 1.424.7295.773 0 1.327-.29 1.661-.8701V32.25c-.34-.5801-.888-.8701-1.644-.8701-.609 0-1.09.249-1.441.7471-.346.498-.519 1.2421-.519 2.2324zm13.456-2.4873c-.345-.0469-.65-.0703-.914-.0703-.961 0-1.591.3252-1.889.9755V39h-2.54v-9.5098h2.399l.07 1.1338c.51-.873 1.216-1.3095 2.118-1.3095.282 0 .545.038.791.1142l-.035 2.4434zm5.432 7.3037c-1.395 0-2.531-.4278-3.41-1.2832-.873-.8555-1.31-1.9951-1.31-3.419v-.2461c0-.955.185-1.8076.554-2.5576.369-.7558.891-1.3359 1.564-1.7402.68-.4102 1.453-.6152 2.321-.6152 1.3 0 2.323.4101 3.067 1.2304.75.8203 1.125 1.9834 1.125 3.4893v1.0371H442.9c.082.6211.329 1.1191.739 1.4941.416.375.94.5625 1.573.5625.978 0 1.743-.3545 2.294-1.0634l1.248 1.3974c-.381.5391-.897.961-1.547 1.2656-.65.2989-1.371.4483-2.162.4483zm-.29-7.8047c-.504 0-.914.1699-1.231.5098-.31.3398-.509.8261-.597 1.4589h3.533v-.2021c-.012-.5625-.164-.9961-.457-1.3008-.293-.3105-.709-.4658-1.248-.4658zm10.028 7.8047c-1.394 0-2.531-.4278-3.41-1.2832-.873-.8555-1.31-1.9951-1.31-3.419v-.2461c0-.955.185-1.8076.554-2.5576.369-.7558.891-1.3359 1.565-1.7402.679-.4102 1.453-.6152 2.32-.6152 1.301 0 2.323.4101 3.067 1.2304.75.8203 1.125 1.9834 1.125 3.4893v1.0371h-6.055c.082.6211.328 1.1191.738 1.4941.416.375.94.5625 1.573.5625.979 0 1.743-.3545 2.294-1.0634l1.248 1.3974c-.381.5391-.896.961-1.547 1.2656-.65.2989-1.371.4483-2.162.4483zm-.29-7.8047c-.504 0-.914.1699-1.23.5098-.311.3398-.51.8261-.598 1.4589h3.533v-.2021c-.011-.5625-.164-.9961-.457-1.3008-.293-.3105-.709-.4658-1.248-.4658zm8.033-1.8809l.079 1.0635c.674-.8262 1.585-1.2392 2.734-1.2392 1.224 0 2.065.4834 2.522 1.4501.668-.9667 1.62-1.4501 2.857-1.4501 1.031 0 1.799.3017 2.303.9052.503.5977.755 1.5.755 2.7071V39h-2.548v-6.0645c0-.539-.106-.9316-.317-1.1777-.211-.2519-.583-.3779-1.116-.3779-.762 0-1.289.3633-1.582 1.0898L468.222 39h-2.54v-6.0557c0-.5507-.109-.9492-.326-1.1953-.216-.2461-.585-.3691-1.107-.3691-.721 0-1.242.2988-1.564.8965V39h-2.54v-9.5098h2.381zm17.587 9.6856c-1.394 0-2.531-.4278-3.41-1.2832-.873-.8555-1.309-1.9951-1.309-3.419v-.2461c0-.955.184-1.8076.553-2.5576.369-.7558.891-1.3359 1.565-1.7402.679-.4102 1.453-.6152 2.32-.6152 1.301 0 2.323.4101 3.067 1.2304.75.8203 1.125 1.9834 1.125 3.4893v1.0371h-6.055c.082.6211.328 1.1191.738 1.4941.416.375.94.5625 1.573.5625.979 0 1.743-.3545 2.294-1.0634l1.248 1.3974c-.381.5391-.896.961-1.547 1.2656-.65.2989-1.371.4483-2.162.4483zm-.29-7.8047c-.504 0-.914.1699-1.23.5098-.311.3398-.51.8261-.598 1.4589h3.533v-.2021c-.011-.5625-.164-.9961-.457-1.3008-.293-.3105-.709-.4658-1.248-.4658zm7.989-1.8809l.08 1.0987c.679-.8496 1.59-1.2744 2.733-1.2744 1.008 0 1.758.2959 2.25.8876.492.5918.744 1.4766.756 2.6543V39h-2.54v-6.082c0-.5391-.117-.9287-.352-1.169-.234-.2461-.624-.3691-1.169-.3691-.715 0-1.251.3047-1.608.914V39h-2.54v-9.5098h2.39zm10.793-2.3379v2.3379h1.626v1.8633h-1.626v4.7461c0 .3516.068.6035.203.7559.134.1523.392.2285.773.2285.281 0 .53-.0205.747-.0615v1.9248c-.498.1523-1.011.2285-1.538.2285-1.781 0-2.689-.8994-2.725-2.6983v-5.124h-1.388v-1.8633h1.388v-2.3379h2.54zM516.702 39h-2.637l-5.132-8.4199V39h-2.637V26.2031h2.637l5.141 8.4375v-8.4375h2.628V39zm1.74-4.8428c0-.9433.182-1.7842.545-2.5224.364-.7383.885-1.3096 1.565-1.7139.685-.4043 1.479-.6064 2.382-.6064 1.283 0 2.329.3925 3.137 1.1777.815.7851 1.269 1.8516 1.363 3.1992l.017.6504c0 1.459-.407 2.6309-1.222 3.5156-.814.8789-1.907 1.3184-3.278 1.3184s-2.467-.4395-3.287-1.3184c-.814-.8789-1.222-2.0742-1.222-3.5859v-.1143zm2.54.1846c0 .9023.17 1.5937.51 2.0742.34.4746.826.7119 1.459.7119.615 0 1.096-.2343 1.442-.7031.345-.4746.518-1.2305.518-2.2676 0-.8847-.173-1.5703-.518-2.0566-.346-.4863-.832-.7295-1.459-.7295-.622 0-1.102.2432-1.442.7295-.34.4805-.51 1.2275-.51 2.2412zm20.751-4.7373c0 .6211-.155 1.1719-.465 1.6523-.311.4805-.739.8643-1.284 1.1514.621.2988 1.114.7119 1.477 1.2393.363.5214.545 1.1367.545 1.8457 0 1.1367-.387 2.0361-1.16 2.6982-.774.6563-1.825.9844-3.156.9844-1.33 0-2.384-.3311-3.164-.9932-.779-.6621-1.169-1.5586-1.169-2.6894 0-.709.182-1.3272.545-1.8545.364-.5274.853-.9375 1.468-1.2305-.545-.2871-.973-.6709-1.283-1.1514-.305-.4804-.457-1.0312-.457-1.6523 0-1.0899.363-1.957 1.09-2.6016.726-.6504 1.714-.9756 2.962-.9756 1.242 0 2.226.3223 2.953.9668.732.6387 1.098 1.5088 1.098 2.6104zm-2.276 5.7041c0-.5566-.161-1.002-.483-1.3359-.323-.334-.756-.501-1.301-.501-.539 0-.97.167-1.292.501-.322.3281-.484.7734-.484 1.3359 0 .5449.159.9844.475 1.3184.316.3339.756.5009 1.318.5009.551 0 .982-.1611 1.292-.4834.317-.3222.475-.7675.475-1.3359zm-.264-5.5811c0-.498-.131-.8964-.395-1.1953-.264-.3047-.636-.457-1.116-.457-.475 0-.844.1465-1.108.4394-.263.293-.395.6973-.395 1.2129 0 .5098.132.92.395 1.2305.264.3106.636.4658 1.116.4658.481 0 .85-.1552 1.108-.4658.264-.3105.395-.7207.395-1.2305zm4.913 2.9795l.739-6.5039h7.172v2.1182h-5.089l-.317 2.751c.604-.3223 1.245-.4834 1.925-.4834 1.219 0 2.174.3779 2.865 1.1338.692.7558 1.037 1.8134 1.037 3.1728 0 .8262-.175 1.5674-.527 2.2236-.346.6504-.844 1.1573-1.494 1.5205-.65.3575-1.418.5362-2.303.5362-.773 0-1.491-.1553-2.153-.4658-.662-.3164-1.187-.7588-1.573-1.3272-.381-.5683-.583-1.2158-.607-1.9424h2.514c.053.5332.237.9492.554 1.2481.322.2929.741.4394 1.256.4394.575 0 1.017-.205 1.328-.6152.31-.416.465-1.002.465-1.7578 0-.7266-.178-1.2832-.536-1.6699-.357-.3868-.864-.5801-1.52-.5801-.604 0-1.093.1582-1.468.4746l-.246.2285-2.022-.501zm12.542-1.2304h1.354c.644 0 1.122-.1612 1.433-.4834.31-.3223.465-.75.465-1.2832 0-.5157-.155-.917-.465-1.2041-.305-.2871-.727-.4307-1.266-.4307-.486 0-.894.1348-1.222.4043-.328.2637-.492.6094-.492 1.0371h-2.54c0-.668.179-1.2656.536-1.793.363-.5332.867-.9492 1.512-1.248.65-.2988 1.365-.4483 2.144-.4483 1.354 0 2.414.3252 3.182.9756.768.6446 1.151 1.5352 1.151 2.6719 0 .5859-.178 1.125-.536 1.6172-.357.4922-.826.8701-1.406 1.1338.721.2578 1.257.6445 1.608 1.1601.358.5157.537 1.125.537 1.8282 0 1.1367-.416 2.0478-1.248 2.7334-.827.6855-1.922 1.0283-3.288 1.0283-1.277 0-2.323-.3369-3.137-1.0108-.809-.6738-1.213-1.5644-1.213-2.6718h2.54c0 .4804.179.873.536 1.1777.363.3047.809.457 1.336.457.603 0 1.075-.1582 1.415-.4746.346-.3222.519-.7471.519-1.2744 0-1.2773-.704-1.916-2.11-1.916h-1.345v-1.9863zm13.694 2.4082c-.662.6504-1.436.9756-2.321.9756-1.13 0-2.036-.3868-2.715-1.1602-.68-.7793-1.02-1.8281-1.02-3.1465 0-.8379.182-1.6055.545-2.3027.369-.7031.882-1.2481 1.538-1.6348.656-.3926 1.395-.5889 2.215-.5889.844 0 1.594.211 2.25.6329.656.4218 1.166 1.0283 1.529 1.8193.364.791.548 1.6963.554 2.7158v.9404c0 2.1329-.53 3.8086-1.591 5.0274-1.06 1.2187-2.563 1.8691-4.509 1.9512l-.624.0087v-2.1181l.563-.0088c2.209-.0996 3.404-1.1367 3.586-3.1113zm-1.696-.9668c.41 0 .761-.1055 1.054-.3164.299-.211.525-.4659.677-.7647V30.791c0-.8613-.164-1.5293-.492-2.0039-.328-.4746-.768-.7119-1.319-.7119-.509 0-.928.2344-1.256.7031-.329.4629-.493 1.0459-.493 1.749 0 .6973.159 1.2715.475 1.7227.322.4453.773.668 1.354.668zm12.032.9668c-.662.6504-1.436.9756-2.321.9756-1.13 0-2.036-.3868-2.715-1.1602-.68-.7793-1.02-1.8281-1.02-3.1465 0-.8379.182-1.6055.545-2.3027.369-.7031.882-1.2481 1.538-1.6348.656-.3926 1.395-.5889 2.215-.5889.844 0 1.594.211 2.25.6329.656.4218 1.166 1.0283 1.529 1.8193.363.791.548 1.6963.554 2.7158v.9404c0 2.1329-.53 3.8086-1.591 5.0274-1.06 1.2187-2.563 1.8691-4.509 1.9512l-.624.0087v-2.1181l.563-.0088c2.209-.0996 3.404-1.1367 3.586-3.1113zm-1.697-.9668c.411 0 .762-.1055 1.055-.3164.299-.211.525-.4659.677-.7647V30.791c0-.8613-.164-1.5293-.492-2.0039-.328-.4746-.768-.7119-1.319-.7119-.509 0-.928.2344-1.256.7031-.329.4629-.493 1.0459-.493 1.749 0 .6973.159 1.2715.475 1.7227.322.4453.773.668 1.353.668zM593.844 39h-8.772v-1.7402l4.14-4.4121c.568-.6211.987-1.1631 1.257-1.626.275-.4629.413-.9024.413-1.3184 0-.5683-.144-1.0137-.431-1.3359-.287-.3281-.697-.4922-1.23-.4922-.575 0-1.029.1992-1.363.5977-.328.3925-.492.9111-.492 1.5556h-2.549c0-.7793.185-1.4912.554-2.1357.375-.6446.902-1.1485 1.582-1.5117.68-.3692 1.45-.5538 2.312-.5538 1.318 0 2.34.3165 3.067.9493.732.6328 1.099 1.5263 1.099 2.6806 0 .6328-.164 1.2774-.493 1.9336-.328.6563-.89 1.4209-1.687 2.294l-2.909 3.0673h5.502V39zM279.775 76.7373c-.099 1.377-.609 2.4609-1.529 3.252-.914.791-2.121 1.1865-3.621 1.1865-1.641 0-2.933-.5508-3.876-1.6524-.937-1.1074-1.406-2.625-1.406-4.5527v-.7822c0-1.2305.217-2.3145.65-3.252.434-.9375 1.052-1.6553 1.855-2.1533.808-.5039 1.746-.7559 2.812-.7559 1.477 0 2.666.3956 3.569 1.1866.902.791 1.423 1.9013 1.564 3.331h-2.637c-.064-.8261-.296-1.4238-.694-1.7929-.393-.375-.993-.5625-1.802-.5625-.879 0-1.538.3164-1.977.9492-.434.6269-.657 1.6025-.668 2.9267v.9668c0 1.3828.208 2.3936.624 3.0323.422.6386 1.084.958 1.986.958.814 0 1.421-.1846 1.819-.5537.405-.375.636-.9522.695-1.7315h2.636zm1.169-.5801c0-.9433.182-1.7842.545-2.5224.364-.7383.885-1.3096 1.565-1.7139.685-.4043 1.479-.6064 2.382-.6064 1.283 0 2.329.3925 3.137 1.1777.815.7851 1.269 1.8516 1.363 3.1992l.017.6504c0 1.459-.407 2.6309-1.222 3.5156-.814.8789-1.907 1.3184-3.278 1.3184s-2.467-.4395-3.287-1.3184c-.814-.8789-1.222-2.0742-1.222-3.5859v-.1143zm2.54.1846c0 .9023.17 1.5937.51 2.0742.34.4746.826.7119 1.459.7119.615 0 1.096-.2343 1.442-.7031.345-.4746.518-1.2305.518-2.2676 0-.8847-.173-1.5703-.518-2.0566-.346-.4863-.833-.7295-1.459-.7295-.622 0-1.102.2432-1.442.7295-.34.4805-.51 1.2275-.51 2.2412zm16.594-.0088c0 1.4649-.334 2.6397-1.002 3.5244-.662.8789-1.558 1.3184-2.689 1.3184-.961 0-1.738-.334-2.329-1.002v4.4824h-2.54v-13.166h2.355l.088.9317c.615-.7383 1.418-1.1074 2.408-1.1074 1.172 0 2.083.4335 2.734 1.3007.65.8672.975 2.0625.975 3.586v.1318zm-2.54-.1846c0-.8847-.158-1.5673-.475-2.0478-.31-.4805-.764-.7207-1.362-.7207-.797 0-1.345.3047-1.643.914v3.8936c.31.627.864.9404 1.661.9404 1.213 0 1.819-.9931 1.819-2.9795zm7.567 1.2569l1.758-5.9151h2.725l-3.823 10.9864-.211.5009c-.569 1.2422-1.506 1.8633-2.813 1.8633-.369 0-.744-.0556-1.125-.167V82.749l.387.0088c.48 0 .838-.0732 1.072-.2197.24-.1465.428-.3897.563-.7295l.299-.7822-3.332-9.5362h2.734l1.766 5.9151zm10.829-3.5332c-.346-.0469-.651-.0703-.914-.0703-.961 0-1.591.3252-1.89.9755V81h-2.54v-9.5098h2.399l.071 1.1338c.509-.873 1.215-1.3095 2.118-1.3095.281 0 .545.038.791.1142l-.035 2.4434zM319.845 81h-2.549v-9.5098h2.549V81zm-2.699-11.9707c0-.3809.126-.6943.378-.9404.258-.2461.607-.3692 1.046-.3692.434 0 .78.1231 1.037.3692.258.2461.387.5595.387.9404 0 .3867-.132.7031-.395.9492-.258.2461-.601.3692-1.029.3692-.427 0-.773-.1231-1.037-.3692-.258-.2461-.387-.5625-.387-.9492zm4.43 7.1455c0-1.459.346-2.6338 1.037-3.5244.698-.8906 1.635-1.3359 2.813-1.3359 1.043 0 1.854.3574 2.434 1.0722l.106-.8965h2.303v9.1934c0 .832-.191 1.5557-.572 2.1709-.375.6152-.905 1.084-1.591 1.4062-.685.3223-1.488.4834-2.408.4834-.697 0-1.377-.1406-2.039-.4218-.662-.2754-1.163-.6328-1.503-1.0723l1.125-1.5469c.633.709 1.401 1.0635 2.303 1.0635.674 0 1.198-.1816 1.573-.5449.375-.3574.563-.8672.563-1.5293v-.5098c-.586.6621-1.357.9932-2.312.9932-1.142 0-2.068-.4453-2.777-1.336-.703-.8964-1.055-2.083-1.055-3.5595v-.1055zm2.54.1846c0 .8613.173 1.5381.519 2.0302.345.4864.82.7295 1.424.7295.773 0 1.327-.29 1.661-.8701V74.25c-.34-.5801-.888-.8701-1.644-.8701-.609 0-1.09.249-1.441.7471-.346.498-.519 1.2421-.519 2.2324zm10.591-3.8321c.674-.8085 1.521-1.2128 2.54-1.2128 2.063 0 3.108 1.1982 3.138 3.5947V81h-2.54v-6.0205c0-.5449-.117-.9463-.352-1.2041-.234-.2637-.624-.3955-1.169-.3955-.744 0-1.283.2871-1.617.8613V81h-2.54V67.5h2.54v5.0273zm10.635-3.375v2.3379h1.626v1.8633h-1.626v4.7461c0 .3516.067.6035.202.7559.135.1523.393.2285.773.2285.282 0 .531-.0205.747-.0615v1.9248c-.498.1523-1.01.2285-1.538.2285-1.781 0-2.689-.8994-2.724-2.6983v-5.124h-1.389v-1.8633h1.389v-2.3379h2.54zm16.365 6.6094c0 .8906-.258 1.5733-.773 2.0479-.51.4746-1.234.7119-2.171.7119-.938 0-1.685-.3106-2.242-.9317-.55-.6269-.826-1.4677-.826-2.5224v-.9932c0-1.0195.279-1.8398.835-2.4609.563-.627 1.307-.9404 2.233-.9404.955 0 1.684.2431 2.188.7294.51.4805.765 1.1573.765 2.0303h-1.371c0-.5625-.135-.9638-.405-1.2041-.269-.2461-.662-.3691-1.177-.3691-.539 0-.958.1992-1.257.5976-.293.3926-.443.92-.448 1.5821v1.081c0 .6856.149 1.2276.448 1.626.299.3926.718.5889 1.257.5889.521 0 .914-.1172 1.177-.3516.264-.2402.396-.6475.396-1.2217h1.371zm2.338-1.1689c0-.9727-.22-1.875-.659-2.7071-.44-.8378-1.061-1.5058-1.864-2.0039-.802-.5039-1.681-.7558-2.636-.7558-.932 0-1.799.2402-2.602.7207-.797.4804-1.424 1.1426-1.881 1.9863-.457.8438-.685 1.7637-.685 2.7598 0 .9961.225 1.916.677 2.7597.457.8438 1.084 1.5118 1.88 2.0039.803.4864 1.673.7295 2.611.7295.937 0 1.807-.249 2.61-.747.809-.4981 1.436-1.169 1.881-2.0127.445-.8438.668-1.7549.668-2.7334zm-11.399 0c0-1.1836.272-2.2823.817-3.2959.551-1.0137 1.309-1.8106 2.276-2.3907.973-.5859 2.022-.8789 3.147-.8789s2.171.293 3.137.8789c.973.5801 1.732 1.377 2.277 2.3907.551 1.0136.826 2.1123.826 3.2959 0 1.1953-.278 2.3027-.835 3.3222-.557 1.0137-1.318 1.8106-2.285 2.3907-.961.58-2.001.8701-3.12.8701-1.131 0-2.18-.293-3.147-.8789-.961-.586-1.717-1.3858-2.267-2.3994-.551-1.0137-.826-2.1153-.826-3.3047zm21.621 1.8984V81h-2.637V68.2031h4.992c.961 0 1.805.1758 2.531.5274.733.3515 1.295.8525 1.688 1.5029.392.6445.589 1.3799.589 2.2061 0 1.2539-.431 2.2441-1.292 2.9707-.856.7207-2.042 1.081-3.56 1.081h-2.311zm0-2.1357h2.355c.697 0 1.228-.1641 1.591-.4922.369-.3281.554-.7969.554-1.4063 0-.6269-.185-1.1338-.554-1.5205-.369-.3867-.879-.5859-1.529-.5976h-2.417v4.0166zm11.294-1.8282c.673-.8085 1.52-1.2128 2.54-1.2128 2.062 0 3.108 1.1982 3.137 3.5947V81h-2.54v-6.0205c0-.5449-.117-.9463-.351-1.2041-.235-.2637-.624-.3955-1.169-.3955-.744 0-1.283.2871-1.617.8613V81h-2.54V67.5h2.54v5.0273zM398.665 81c-.117-.2285-.202-.5127-.255-.8525-.615.6855-1.415 1.0283-2.399 1.0283-.932 0-1.705-.2696-2.321-.8086-.609-.5391-.914-1.2188-.914-2.0391 0-1.0078.372-1.7812 1.117-2.3203.75-.539 1.831-.8115 3.243-.8174h1.169v-.5449c0-.4394-.115-.791-.343-1.0547-.223-.2637-.577-.3955-1.064-.3955-.427 0-.764.1026-1.01.3076-.241.2051-.361.4864-.361.8438h-2.54c0-.5508.17-1.0606.51-1.5293.34-.4688.82-.835 1.441-1.0986.622-.2696 1.319-.4043 2.092-.4043 1.172 0 2.101.2959 2.786.8876.692.586 1.038 1.4122 1.038 2.4786v4.122c.005.9024.131 1.585.377 2.0479V81h-2.566zm-2.101-1.7666c.375 0 .721-.082 1.038-.2461.316-.1699.55-.3955.703-.6768v-1.6347h-.95c-1.271 0-1.948.4394-2.03 1.3183l-.009.1495c0 .3164.112.5771.334.7822.223.2051.528.3076.914.3076zm11.584-5.3613c-.345-.0469-.65-.0703-.914-.0703-.961 0-1.59.3252-1.889.9755V81h-2.54v-9.5098h2.399l.07 1.1338c.51-.873 1.216-1.3095 2.119-1.3095.281 0 .545.038.791.1142l-.036 2.4434zm3.613-2.3819l.079 1.0635c.674-.8262 1.585-1.2392 2.733-1.2392 1.225 0 2.066.4834 2.523 1.4501.668-.9667 1.62-1.4501 2.856-1.4501 1.031 0 1.799.3017 2.303.9052.504.5977.756 1.5.756 2.7071V81h-2.549v-6.0645c0-.539-.106-.9316-.316-1.1777-.211-.2519-.584-.3779-1.117-.3779-.761 0-1.289.3633-1.582 1.0898L417.456 81h-2.54v-6.0557c0-.5507-.108-.9492-.325-1.1953-.217-.2461-.586-.3691-1.108-.3691-.72 0-1.242.2988-1.564.8965V81h-2.54v-9.5098h2.382zM430.481 81c-.117-.2285-.202-.5127-.254-.8525-.616.6855-1.415 1.0283-2.4 1.0283-.931 0-1.705-.2696-2.32-.8086-.61-.5391-.914-1.2188-.914-2.0391 0-1.0078.372-1.7812 1.116-2.3203.75-.539 1.831-.8115 3.243-.8174h1.169v-.5449c0-.4394-.114-.791-.343-1.0547-.222-.2637-.577-.3955-1.063-.3955-.428 0-.765.1026-1.011.3076-.24.2051-.36.4864-.36.8438h-2.54c0-.5508.17-1.0606.509-1.5293.34-.4688.821-.835 1.442-1.0986.621-.2696 1.318-.4043 2.092-.4043 1.172 0 2.1.2959 2.786.8876.691.586 1.037 1.4122 1.037 2.4786v4.122c.006.9024.132 1.585.378 2.0479V81h-2.567zm-2.1-1.7666c.375 0 .721-.082 1.037-.2461.316-.1699.551-.3955.703-.6768v-1.6347h-.949c-1.272 0-1.948.4394-2.03 1.3183l-.009.1495c0 .3164.111.5771.334.7822.222.2051.527.3076.914.3076zm9.044-.3516h5.598V81h-8.235V68.2031h2.637v10.6787zm11.329 2.294c-1.395 0-2.531-.4278-3.41-1.2832-.873-.8555-1.31-1.9951-1.31-3.419v-.2461c0-.955.185-1.8076.554-2.5576.369-.7558.891-1.3359 1.564-1.7402.68-.4102 1.453-.6152 2.321-.6152 1.3 0 2.323.4101 3.067 1.2304.75.8203 1.125 1.9834 1.125 3.4893v1.0371h-6.056c.082.6211.329 1.1191.739 1.4941.416.375.94.5625 1.573.5625.978 0 1.743-.3545 2.294-1.0634l1.248 1.3974c-.381.5391-.897.961-1.547 1.2656-.65.2989-1.371.4483-2.162.4483zm-.29-7.8047c-.504 0-.914.1699-1.231.5098-.31.3398-.509.8261-.597 1.4589h3.533v-.2021c-.012-.5625-.164-.9961-.457-1.3008-.293-.3105-.709-.4658-1.248-.4658zm5.256 2.8037c0-1.4824.331-2.6631.993-3.542.668-.8789 1.579-1.3183 2.733-1.3183.926 0 1.691.3457 2.294 1.0371V67.5h2.549V81h-2.294l-.123-1.0107c-.633.791-1.447 1.1865-2.443 1.1865-1.119 0-2.019-.4395-2.699-1.3184-.673-.8847-1.01-2.1123-1.01-3.6826zm2.54.1846c0 .8906.155 1.5732.466 2.0478.31.4746.761.7119 1.353.7119.785 0 1.339-.331 1.661-.9931v-3.753c-.316-.6621-.864-.9931-1.643-.9931-1.225 0-1.837.9931-1.837 2.9795zm7.629-.1846c0-1.459.345-2.6338 1.037-3.5244.697-.8906 1.635-1.3359 2.812-1.3359 1.043 0 1.855.3574 2.435 1.0722l.105-.8965h2.303v9.1934c0 .832-.19 1.5557-.571 2.1709-.375.6152-.906 1.084-1.591 1.4062-.686.3223-1.488.4834-2.408.4834-.698 0-1.377-.1406-2.039-.4218-.662-.2754-1.163-.6328-1.503-1.0723l1.125-1.5469c.633.709 1.4 1.0635 2.302 1.0635.674 0 1.199-.1816 1.574-.5449.375-.3574.562-.8672.562-1.5293v-.5098c-.586.6621-1.356.9932-2.311.9932-1.143 0-2.069-.4453-2.778-1.336-.703-.8964-1.054-2.083-1.054-3.5595v-.1055zm2.54.1846c0 .8613.173 1.5381.518 2.0302.346.4864.821.7295 1.424.7295.774 0 1.327-.29 1.661-.8701V74.25c-.34-.5801-.887-.8701-1.643-.8701-.61 0-1.09.249-1.442.7471-.345.498-.518 1.2421-.518 2.2324zm12.489 4.8164c-1.395 0-2.531-.4278-3.41-1.2832-.873-.8555-1.31-1.9951-1.31-3.419v-.2461c0-.955.185-1.8076.554-2.5576.369-.7558.891-1.3359 1.564-1.7402.68-.4102 1.454-.6152 2.321-.6152 1.301 0 2.323.4101 3.067 1.2304.75.8203 1.125 1.9834 1.125 3.4893v1.0371h-6.056c.082.6211.329 1.1191.739 1.4941.416.375.94.5625 1.573.5625.978 0 1.743-.3545 2.294-1.0634l1.248 1.3974c-.381.5391-.897.961-1.547 1.2656-.65.2989-1.371.4483-2.162.4483zm-.29-7.8047c-.504 0-.914.1699-1.231.5098-.31.3398-.509.8261-.597 1.4589h3.533v-.2021c-.012-.5625-.164-.9961-.457-1.3008-.293-.3105-.709-.4658-1.248-.4658zm10.995.501c-.346-.0469-.65-.0703-.914-.0703-.961 0-1.591.3252-1.89.9755V81h-2.54v-9.5098h2.4l.07 1.1338c.51-.873 1.216-1.3095 2.118-1.3095.281 0 .545.038.791.1142l-.035 2.4434zm15.926 2.8652c-.1 1.377-.61 2.4609-1.529 3.252-.915.791-2.122 1.1865-3.622 1.1865-1.64 0-2.932-.5508-3.876-1.6524-.937-1.1074-1.406-2.625-1.406-4.5527v-.7822c0-1.2305.217-2.3145.651-3.252.433-.9375 1.051-1.6553 1.854-2.1533.809-.5039 1.746-.7559 2.813-.7559 1.476 0 2.666.3956 3.568 1.1866.902.791 1.424 1.9013 1.564 3.331h-2.636c-.065-.8261-.296-1.4238-.695-1.7929-.392-.375-.993-.5625-1.801-.5625-.879 0-1.538.3164-1.978.9492-.434.6269-.656 1.6025-.668 2.9267v.9668c0 1.3828.208 2.3936.624 3.0323.422.6386 1.084.958 1.986.958.815 0 1.421-.1846 1.82-.5537.404-.375.636-.9522.694-1.7315h2.637zm1.169-.5801c0-.9433.181-1.7842.545-2.5224.363-.7383.884-1.3096 1.564-1.7139.686-.4043 1.48-.6064 2.382-.6064 1.283 0 2.329.3925 3.138 1.1777.814.7851 1.268 1.8516 1.362 3.1992l.018.6504c0 1.459-.408 2.6309-1.222 3.5156-.815.8789-1.907 1.3184-3.278 1.3184-1.372 0-2.467-.4395-3.288-1.3184-.814-.8789-1.221-2.0742-1.221-3.5859v-.1143zm2.54.1846c0 .9023.17 1.5937.51 2.0742.339.4746.826.7119 1.459.7119.615 0 1.095-.2343 1.441-.7031.346-.4746.519-1.2305.519-2.2676 0-.8847-.173-1.5703-.519-2.0566-.346-.4863-.832-.7295-1.459-.7295-.621 0-1.102.2432-1.441.7295-.34.4805-.51 1.2275-.51 2.2412zm10.371-4.8516l.079 1.0987c.68-.8496 1.591-1.2744 2.733-1.2744 1.008 0 1.758.2959 2.25.8876.493.5918.745 1.4766.756 2.6543V81h-2.54v-6.082c0-.5391-.117-.9287-.351-1.169-.235-.2461-.624-.3691-1.169-.3691-.715 0-1.251.3047-1.609.914V81h-2.54v-9.5098h2.391zm12.902 6.8819c0-.3106-.155-.5537-.466-.7295-.304-.1817-.796-.3428-1.476-.4834-2.262-.4746-3.393-1.4356-3.393-2.8828 0-.8438.349-1.5469 1.046-2.1094.703-.5684 1.62-.8525 2.751-.8525 1.207 0 2.171.2841 2.892.8525.726.5684 1.09 1.3066 1.09 2.2148h-2.54c0-.3632-.118-.6621-.352-.8964-.234-.2403-.601-.3604-1.099-.3604-.427 0-.758.0967-.993.29-.234.1934-.351.4395-.351.7383 0 .2813.131.5098.395.6856.27.1699.721.3193 1.354.4482.632.1231 1.166.2637 1.599.4219 1.342.4922 2.013 1.3447 2.013 2.5576 0 .8672-.372 1.5703-1.116 2.1094-.744.5332-1.705.7998-2.883.7998-.797 0-1.506-.1406-2.127-.4219-.615-.2871-1.099-.6768-1.45-1.1689-.352-.4981-.528-1.0342-.528-1.6084h2.409c.023.4511.19.7968.501 1.0371.31.2402.726.3603 1.248.3603.486 0 .852-.0908 1.098-.2724.252-.1875.378-.4307.378-.7295zm3.718-2.2149c0-.9433.182-1.7842.545-2.5224.363-.7383.885-1.3096 1.564-1.7139.686-.4043 1.48-.6064 2.382-.6064 1.283 0 2.329.3925 3.138 1.1777.814.7851 1.268 1.8516 1.362 3.1992l.018.6504c0 1.459-.407 2.6309-1.222 3.5156-.814.8789-1.907 1.3184-3.278 1.3184s-2.467-.4395-3.287-1.3184c-.815-.8789-1.222-2.0742-1.222-3.5859v-.1143zm2.54.1846c0 .9023.17 1.5937.51 2.0742.34.4746.826.7119 1.459.7119.615 0 1.096-.2343 1.441-.7031.346-.4746.519-1.2305.519-2.2676 0-.8847-.173-1.5703-.519-2.0566-.345-.4863-.832-.7295-1.459-.7295-.621 0-1.101.2432-1.441.7295-.34.4805-.51 1.2275-.51 2.2412zm13.377-2.4697c-.346-.0469-.65-.0703-.914-.0703-.961 0-1.591.3252-1.89.9755V81h-2.54v-9.5098h2.4l.07 1.1338c.51-.873 1.216-1.3095 2.118-1.3095.281 0 .545.038.791.1142l-.035 2.4434zm4.711-4.7198v2.3379h1.626v1.8633h-1.626v4.7461c0 .3516.067.6035.202.7559.135.1523.393.2285.774.2285.281 0 .53-.0205.747-.0615v1.9248c-.498.1523-1.011.2285-1.538.2285-1.782 0-2.69-.8994-2.725-2.6983v-5.124h-1.389v-1.8633h1.389v-2.3379h2.54zM562.599 81h-2.549v-9.5098h2.549V81zM559.9 69.0293c0-.3809.126-.6943.378-.9404.258-.2461.607-.3692 1.046-.3692.434 0 .78.1231 1.037.3692.258.2461.387.5595.387.9404 0 .3867-.132.7031-.395.9492-.258.2461-.601.3692-1.029.3692-.428 0-.773-.1231-1.037-.3692-.258-.2461-.387-.5625-.387-.9492zm10.495 11.0039c-.627.7617-1.495 1.1426-2.602 1.1426-1.02 0-1.799-.293-2.338-.8789-.533-.586-.806-1.4444-.817-2.5752v-6.2315h2.54v6.1436c0 .9902.451 1.4853 1.353 1.4853.862 0 1.453-.2988 1.776-.8964v-6.7325h2.548V81h-2.39l-.07-.9668zm6.758-8.543l.079 1.0635c.674-.8262 1.585-1.2392 2.734-1.2392 1.224 0 2.065.4834 2.522 1.4501.668-.9667 1.62-1.4501 2.857-1.4501 1.031 0 1.799.3017 2.302.9052.504.5977.756 1.5.756 2.7071V81h-2.549v-6.0645c0-.539-.105-.9316-.316-1.1777-.211-.2519-.583-.3779-1.116-.3779-.762 0-1.289.3633-1.582 1.0898L582.849 81h-2.54v-6.0557c0-.5507-.109-.9492-.326-1.1953-.216-.2461-.586-.3691-1.107-.3691-.721 0-1.242.2988-1.564.8965V81h-2.541v-9.5098h2.382zM603.512 81h-8.772v-1.7402l4.14-4.4121c.568-.6211.987-1.1631 1.257-1.626.275-.4629.413-.9024.413-1.3184 0-.5683-.144-1.0137-.431-1.3359-.287-.3281-.697-.4922-1.23-.4922-.575 0-1.029.1992-1.363.5977-.328.3925-.492.9111-.492 1.5556h-2.549c0-.7793.185-1.4912.554-2.1357.375-.6446.902-1.1485 1.582-1.5117.68-.3692 1.45-.5538 2.312-.5538 1.318 0 2.34.3165 3.067.9493.732.6328 1.099 1.5263 1.099 2.6806 0 .6328-.164 1.2774-.493 1.9336-.328.6563-.89 1.4209-1.687 2.294l-2.909 3.0673h5.502V81zm10.177-5.291c0 1.7695-.366 3.123-1.098 4.0605-.733.9375-1.805 1.4063-3.217 1.4063-1.395 0-2.461-.46-3.199-1.3799-.738-.9199-1.116-2.2383-1.134-3.9551v-2.3554c0-1.7872.369-3.1436 1.107-4.0694.745-.9258 1.814-1.3887 3.208-1.3887 1.395 0 2.461.46 3.2 1.3799.738.9141 1.116 2.2295 1.133 3.9463v2.3555zm-2.54-2.584c0-1.0605-.146-1.8311-.439-2.3115-.287-.4864-.738-.7295-1.354-.7295-.597 0-1.04.2314-1.327.6943-.281.4571-.43 1.1748-.448 2.1533v3.1114c0 1.0429.141 1.8193.422 2.3291.287.5039.744.7558 1.371.7558.621 0 1.069-.2431 1.345-.7295.275-.4863.419-1.2304.43-2.2324v-3.041zM624.184 81h-8.772v-1.7402l4.14-4.4121c.568-.6211.987-1.1631 1.257-1.626.275-.4629.413-.9024.413-1.3184 0-.5683-.144-1.0137-.431-1.3359-.287-.3281-.697-.4922-1.23-.4922-.575 0-1.029.1992-1.363.5977-.328.3925-.492.9111-.492 1.5556h-2.549c0-.7793.185-1.4912.554-2.1357.375-.6446.902-1.1485 1.582-1.5117.68-.3692 1.45-.5538 2.311-.5538 1.319 0 2.341.3165 3.068.9493.732.6328 1.099 1.5263 1.099 2.6806 0 .6328-.165 1.2774-.493 1.9336-.328.6563-.89 1.4209-1.687 2.294l-2.909 3.0673h5.502V81zm10.177-5.291c0 1.7695-.366 3.123-1.098 4.0605-.733.9375-1.805 1.4063-3.217 1.4063-1.395 0-2.461-.46-3.199-1.3799-.739-.9199-1.117-2.2383-1.134-3.9551v-2.3554c0-1.7872.369-3.1436 1.107-4.0694.744-.9258 1.814-1.3887 3.208-1.3887 1.395 0 2.461.46 3.2 1.3799.738.9141 1.116 2.2295 1.133 3.9463v2.3555zm-2.54-2.584c0-1.0605-.146-1.8311-.439-2.3115-.287-.4864-.738-.7295-1.354-.7295-.597 0-1.04.2314-1.327.6943-.281.4571-.43 1.1748-.448 2.1533v3.1114c0 1.0429.141 1.8193.422 2.3291.287.5039.744.7558 1.371.7558.621 0 1.069-.2431 1.345-.7295.275-.4863.419-1.2304.43-2.2324v-3.041zm18.317 2.6367h-9.106v-2.0742h9.106v2.0742zM660.711 81h-8.772v-1.7402l4.14-4.4121c.568-.6211.987-1.1631 1.257-1.626.275-.4629.413-.9024.413-1.3184 0-.5683-.144-1.0137-.431-1.3359-.287-.3281-.697-.4922-1.23-.4922-.574 0-1.028.1992-1.362.5977-.329.3925-.493.9111-.493 1.5556h-2.548c0-.7793.184-1.4912.553-2.1357.375-.6446.903-1.1485 1.582-1.5117.68-.3692 1.451-.5538 2.312-.5538 1.318 0 2.341.3165 3.067.9493.733.6328 1.099 1.5263 1.099 2.6806 0 .6328-.164 1.2774-.492 1.9336-.328.6563-.891 1.4209-1.688 2.294l-2.909 3.0673h5.502V81zm10.178-5.291c0 1.7695-.367 3.123-1.099 4.0605s-1.805 1.4063-3.217 1.4063c-1.394 0-2.461-.46-3.199-1.3799-.738-.9199-1.116-2.2383-1.134-3.9551v-2.3554c0-1.7872.369-3.1436 1.108-4.0694.744-.9258 1.813-1.3887 3.208-1.3887 1.394 0 2.461.46 3.199 1.3799.738.9141 1.116 2.2295 1.134 3.9463v2.3555zm-2.54-2.584c0-1.0605-.147-1.8311-.44-2.3115-.287-.4864-.738-.7295-1.353-.7295-.598 0-1.04.2314-1.327.6943-.282.4571-.431 1.1748-.449 2.1533v3.1114c0 1.0429.141 1.8193.422 2.3291.287.5039.744.7558 1.371.7558.621 0 1.07-.2431 1.345-.7295.275-.4863.419-1.2304.431-2.2324v-3.041zM681.383 81h-8.772v-1.7402l4.14-4.4121c.568-.6211.987-1.1631 1.257-1.626.275-.4629.413-.9024.413-1.3184 0-.5683-.144-1.0137-.431-1.3359-.287-.3281-.697-.4922-1.23-.4922-.574 0-1.029.1992-1.363.5977-.328.3925-.492.9111-.492 1.5556h-2.549c0-.7793.185-1.4912.554-2.1357.375-.6446.902-1.1485 1.582-1.5117.68-.3692 1.45-.5538 2.312-.5538 1.318 0 2.341.3165 3.067.9493.733.6328 1.099 1.5263 1.099 2.6806 0 .6328-.164 1.2774-.492 1.9336-.329.6563-.891 1.4209-1.688 2.294l-2.909 3.0673h5.502V81zm4.148-7.5234h1.354c.644 0 1.122-.1612 1.432-.4834.311-.3223.466-.75.466-1.2832 0-.5157-.155-.917-.466-1.2041-.304-.2871-.726-.4307-1.265-.4307-.487 0-.894.1348-1.222.4043-.328.2637-.492.6094-.492 1.0371h-2.54c0-.668.179-1.2656.536-1.793.363-.5332.867-.9492 1.512-1.248.65-.2988 1.365-.4483 2.144-.4483 1.354 0 2.414.3252 3.182.9756.767.6446 1.151 1.5352 1.151 2.6719 0 .5859-.178 1.125-.536 1.6172-.357.4922-.826.8701-1.406 1.1338.721.2578 1.257.6445 1.608 1.1601.358.5157.536 1.125.536 1.8282 0 1.1367-.416 2.0478-1.248 2.7334-.826.6855-1.922 1.0283-3.287 1.0283-1.277 0-2.323-.3369-3.137-1.0108-.809-.6738-1.213-1.5644-1.213-2.6718h2.54c0 .4804.178.873.536 1.1777.363.3047.808.457 1.336.457.603 0 1.075-.1582 1.415-.4746.345-.3222.518-.7471.518-1.2744 0-1.2773-.703-1.916-2.109-1.916h-1.345v-1.9863z" fill="#fff"/></svg>